<svg width="967" height="487" viewBox="0 0 967 487" fill="none" xmlns="http://www.w3.org/2000/svg">
<g clip-path="url(#clip0)">
<rect width="967" height="487" fill="white"/>
<g clip-path="url(#clip1)">
<g opacity="0.1">
<path opacity="0.1" d="M745.3 372.7L732.2 328.2L711.7 369.4L712.1 240.6L732.3 232.9L745.4 242.6L745.3 372.7Z" fill="#3D9096"/>
</g>
<path d="M822.2 362C822.1 362 822.1 362 822 361.9L808.6 324.8V324.7L822 297.9C822 297.8 822.1 297.8 822.2 297.8C822.3 297.8 822.3 297.9 822.3 298V361.9C822.4 361.9 822.3 362 822.2 362ZM809 324.7L822 360.7V298.6L809 324.7Z" fill="#3D9096"/>
<path d="M808.8 324.8C808.7 324.8 808.7 324.8 808.8 324.8L797.7 297.2V297.1L806.1 293.3H806.2C806.2 293.3 806.2 293.3 806.2 293.4L808.8 324.8C808.9 324.8 808.8 324.8 808.8 324.8ZM797.8 297.2L808.6 324.1L806 293.4L797.8 297.2Z" fill="#3D9096"/>
<path d="M791.5 366.9C791.4 366.8 791.4 366.8 791.4 366.8L808.7 324.7C808.7 324.7 808.7 324.6 808.8 324.6C808.8 324.6 808.9 324.6 808.9 324.7L822.3 361.8V361.9C822.3 361.9 822.3 361.9 822.2 361.9L791.5 366.9ZM808.8 325L791.7 366.7L822.1 361.7L808.8 325Z" fill="#3D9096"/>
<path d="M791.7 319.7C791.6 319.7 791.5 319.6 791.5 319.5V290C791.5 289.9 791.5 289.9 791.6 289.8C791.7 289.8 791.7 289.8 791.8 289.9L798 297.1C798 297.1 798.1 297.2 798 297.3L791.8 319.7C791.8 319.7 791.8 319.7 791.7 319.7ZM791.9 290.5V318.2L797.7 297.2L791.9 290.5Z" fill="#3D9096"/>
<path d="M822.2 361.9C822.1 361.9 822.1 361.9 822.2 361.9L791.6 319.6V319.5H791.7L808.8 324.7C808.8 324.7 808.8 324.7 808.9 324.8L822.3 361.9C822.3 361.8 822.3 361.9 822.2 361.9ZM791.9 319.7L821.9 361.2L808.7 324.8L791.9 319.7Z" fill="#3D9096"/>
<path d="M761.2 322.7L745.2 298V297.9H745.3L765.7 307.1C765.7 307.1 765.8 307.2 765.7 307.2L761.2 322.7C761.3 322.7 761.3 322.7 761.2 322.7ZM745.5 298.1L761.2 322.4L765.6 307.1L745.5 298.1Z" fill="#3D9096"/>
<path d="M791.7 319.7C791.7 319.7 791.6 319.7 791.7 319.7L765.6 307.2C765.5 307.2 765.5 307.1 765.5 307.1C765.5 307 765.5 307 765.6 306.9L791.6 289.8C791.7 289.8 791.7 289.8 791.8 289.8C791.9 289.8 791.9 289.9 791.9 290V319.5C791.9 319.6 791.8 319.7 791.7 319.7ZM766.1 307.1L791.5 319.3V290.4L766.1 307.1Z" fill="#3D9096"/>
<path d="M791.5 366.9L761.1 322.6V322.5C761.1 322.5 761.1 322.5 761.2 322.4L791.6 319.3H791.7C791.7 319.3 791.7 319.3 791.7 319.4L791.5 366.9C791.6 366.9 791.6 366.9 791.5 366.9ZM761.4 322.7L791.4 366.6L791.6 319.7L761.4 322.7Z" fill="#3D9096"/>
<path d="M745.4 298.1C745.3 298.1 745.2 298 745.2 298L736.5 264V263.9L745.2 242.6C745.2 242.5 745.3 242.5 745.4 242.5C745.5 242.5 745.5 242.6 745.5 242.7V298C745.6 298 745.5 298.1 745.4 298.1ZM736.9 263.9L745.2 296.5V243.5L736.9 263.9Z" fill="#3D9096"/>
<path d="M736.7 264C736.7 264 736.6 263.9 736.7 264L732.1 251.7V251.6L745.3 242.5H745.4V242.6L736.7 264C736.8 263.9 736.7 264 736.7 264ZM732.3 251.7L736.7 263.6L745.2 242.8L732.3 251.7Z" fill="#3D9096"/>
<path d="M745.4 298L732.1 287V286.9L736.6 263.9C736.6 263.9 736.6 263.8 736.7 263.8C736.7 263.8 736.8 263.8 736.8 263.9L745.5 297.9C745.5 297.9 745.5 298 745.4 298C745.5 298 745.4 298 745.4 298ZM732.3 286.8L745.3 297.6L736.8 264.2L732.3 286.8Z" fill="#3D9096"/>
<path d="M745.4 357.4C745.3 357.4 745.3 357.4 745.2 357.3L732 328.3V328.2L745.2 297.9C745.2 297.8 745.3 297.8 745.4 297.8C745.5 297.8 745.5 297.9 745.5 298V357.3C745.6 357.3 745.5 357.4 745.4 357.4C745.5 357.4 745.4 357.4 745.4 357.4ZM732.4 328.2L745.3 356.4V298.8L732.4 328.2Z" fill="#3D9096"/>
<path d="M711.7 369.6C711.7 369.6 711.6 369.6 711.6 369.5C711.5 369.4 711.5 369.4 711.6 369.3L732.2 328.1C732.2 328 732.3 328 732.4 328C732.5 328 732.5 328.1 732.5 328.2V361C732.5 361.1 732.5 361.1 732.4 361.2L711.7 369.6C711.8 369.6 711.8 369.6 711.7 369.6ZM732.2 329L712.1 369.1L732.2 360.9V329Z" fill="#3D9096"/>
<path d="M732.4 328.3C732.3 328.3 732.3 328.3 732.4 328.3L712.1 318.6C712.1 318.6 712 318.5 712.1 318.5L721 297.9C721 297.9 721 297.9 721.1 297.8C721.1 297.8 721.2 297.8 721.2 297.9L732.6 328.2C732.5 328.2 732.4 328.3 732.4 328.3ZM712.2 318.4L732.2 328L721 298.1L712.2 318.4Z" fill="#3D9096"/>
<path d="M721 298C721 298 720.9 298 721 298C720.9 298 720.9 298 721 298L711.7 259.4V259.3H711.8L732.2 286.8V286.9L721 298ZM711.9 259.8L721 297.7L732.1 286.8L711.9 259.8Z" fill="#3D9096"/>
<path d="M711.7 259.5C711.7 259.5 711.7 259.4 711.7 259.5L711.9 240.6V240.5H712L732.1 251.6C732.1 251.6 732.1 251.6 732.1 251.7C732.1 251.7 732.1 251.8 732 251.8L711.7 259.5C711.8 259.5 711.8 259.5 711.7 259.5ZM712.2 240.7L711.9 259.3L732 251.7L712.2 240.7Z" fill="#3D9096"/>
<g opacity="0.2">
<path opacity="0.2" d="M822.1 369.9L822.2 297.8L793.6 289.6H791.8L813.1 304.8L822.1 369.9Z" fill="#3D9096"/>
</g>
<g opacity="0.2">
<path opacity="0.2" d="M745.6 298V372.9L751.1 317.2L762.6 294.7L745.6 298Z" fill="#3D9096"/>
</g>
<g opacity="0.2">
<path opacity="0.2" d="M822.2 297.8V322.6L799.5 301.5L791.5 290.7L768 302.5L745.3 319.6L745.6 298L791.5 289L822.2 297.8Z" fill="#3D9096"/>
</g>
<g opacity="0.2">
<path opacity="0.2" d="M745.3 365.6L745.4 242.6L732.4 233.3L741.1 245.6L745.3 365.6Z" fill="#3D9096"/>
</g>
<g opacity="0.2">
<path opacity="0.2" d="M732 359.9V233.1L712.1 240.6L711.7 369.4L715.8 250.7L726.7 240.6L732 359.9Z" fill="#3D9096"/>
</g>
<g opacity="0.2">
<path opacity="0.2" d="M745.4 242.6L745.3 270.2L737.9 247.7L732.4 238.5L720.6 249.4L712.2 272.1L712.1 240.6L732.3 232.9L745.4 242.6Z" fill="#3D9096"/>
</g>
<path d="M721 298C720.9 298 720.9 298 721 298C720.9 298 720.9 297.9 720.9 297.9L732.2 232.9C732.2 232.9 732.2 232.8 732.3 232.8C732.3 232.8 732.4 232.8 732.4 232.9L732.3 286.9V287L721 298ZM732.2 234L721.1 297.6L732.1 286.8L732.2 234Z" fill="#3D9096"/>
<path d="M721 298C720.9 298 720.9 298 721 298L711.7 259.5V259.4L732.3 233.2H732.4L732.5 233.3L721 298ZM711.8 259.5L720.9 297.4L732.2 233.6L711.8 259.5Z" fill="#3D9096"/>
<path d="M732.2 328.3L722.2 323.4C722.2 323.4 722.1 323.4 722.1 323.3L720.8 297.9C720.8 297.9 720.8 297.8 720.9 297.8C721 297.8 721 297.8 721 297.9L732.2 328.2C732.3 328.2 732.3 328.3 732.2 328.3ZM722.3 323.3L732 328L721.1 298.5L722.3 323.3Z" fill="#3D9096"/>
<path d="M732.4 361.1C732.3 361.1 732.3 361.1 732.4 361.1L711.7 347.1C711.7 347.1 711.6 347 711.7 347L722.2 323.2C722.2 323.2 722.2 323.1 722.3 323.1C722.3 323.1 722.4 323.1 722.4 323.2L732.5 360.9C732.5 361.1 732.4 361.1 732.4 361.1ZM711.9 347.1L732.2 360.8L722.2 323.6L711.9 347.1Z" fill="#3D9096"/>
<path d="M732.1 328.3C732.1 328.3 732 328.2 732.1 328.3L732 286.9C732 286.9 732 286.8 732.1 286.8C732.1 286.8 732.2 286.8 732.2 286.9L745.3 318.5V318.6L732.1 328.3C732.2 328.3 732.2 328.3 732.1 328.3ZM732.2 287.4V328L745.1 318.4L732.2 287.4Z" fill="#3D9096"/>
<path d="M732.4 361.1C732.3 361.1 732.3 361.1 732.4 361.1C732.3 361.1 732.3 361.1 732.4 361.1L732.1 328.2V328.1L745.2 318.4H745.3V318.5L732.4 361.1ZM732.2 328.3L732.4 360.5L745 318.8L732.2 328.3Z" fill="#3D9096"/>
<path d="M745.2 259.5L732.1 251.7C732.1 251.7 732.1 251.7 732.1 251.6L732.3 233.2C732.3 233.2 732.3 233.1 732.4 233.1C732.5 233.1 732.5 233.1 732.5 233.2L745.3 259.3C745.3 259.4 745.3 259.5 745.2 259.5ZM732.3 251.6L745 259.2L732.5 233.7L732.3 251.6Z" fill="#3D9096"/>
<path d="M745.3 298C745.2 298 745.2 298 745.3 298L732.1 287V286.9L745.2 259.4L745.3 259.3C745.3 259.3 745.4 259.3 745.4 259.4L745.3 298C745.4 297.9 745.3 298 745.3 298ZM732.2 286.9L745.1 297.7L745 259.8L732.2 286.9Z" fill="#3D9096"/>
<path d="M757.7 358.5C757.6 358.5 757.6 358.4 757.6 358.4L761.1 322.6C761.1 322.6 761.1 322.5 761.2 322.5L791.6 319.4C791.6 319.4 791.7 319.4 791.7 319.5V319.6L757.7 358.5C757.8 358.5 757.8 358.5 757.7 358.5ZM761.3 322.7L757.8 358.1L791.4 319.7L761.3 322.7Z" fill="#3D9096"/>
<path d="M791.5 366.9L777.4 361.9L777.3 361.8L791.5 319.5L791.6 319.4C791.6 319.4 791.7 319.4 791.7 319.5L791.5 366.9C791.6 366.9 791.6 366.9 791.5 366.9ZM777.6 361.7L791.5 366.7L791.7 320.1L777.6 361.7Z" fill="#3D9096"/>
<path d="M745.2 318.6C745.1 318.5 745.1 318.5 745.2 318.6V297.9V297.8H745.3L765.7 307C765.7 307 765.8 307 765.8 307.1V307.2L745.2 318.6ZM745.4 298.1L745.3 318.4L765.5 307.2L745.4 298.1Z" fill="#3D9096"/>
<path d="M774.7 301.2L762.5 294.7C762.5 294.7 762.4 294.6 762.5 294.6C762.5 294.6 762.5 294.5 762.6 294.5L791.5 289.1C791.5 289.1 791.6 289.1 791.6 289.2L791.8 290V290.1L774.7 301.2ZM762.8 294.7L774.6 301L791.5 289.9L791.4 289.3L762.8 294.7Z" fill="#3D9096"/>
<path d="M745.3 372.8C745.2 372.8 745.2 372.8 745.3 372.8C745.2 372.7 745.2 372.7 745.3 372.8L745.4 357.3V357.2C745.4 357.2 745.4 357.2 745.5 357.2L757.8 358.4C757.8 358.4 757.9 358.4 757.9 358.5V358.6L745.3 372.8C745.3 372.7 745.3 372.8 745.3 372.8ZM745.5 357.3L745.3 372.4L757.5 358.5L745.5 357.3Z" fill="#3D9096"/>
<path d="M757.7 358.5L745.1 318.5V318.4H745.2L761.2 322.5L761.3 322.6L757.7 358.5C757.8 358.4 757.8 358.5 757.7 358.5ZM745.3 318.6L757.6 357.9L761 322.7L745.3 318.6Z" fill="#3D9096"/>
<path d="M777.4 361.9L757.7 358.5C757.7 358.5 757.6 358.5 757.6 358.4V358.3L773.1 340.6H773.2C773.2 340.6 773.3 340.6 773.3 340.7L777.5 361.8C777.5 361.8 777.5 361.9 777.4 361.9C777.5 361.9 777.5 361.9 777.4 361.9ZM757.9 358.3L777.3 361.7L773.1 340.9L757.9 358.3Z" fill="#3D9096"/>
<path d="M773.2 340.8C773.2 340.8 773.1 340.7 773.2 340.8L765.6 307.1V307L791.6 289.9H791.7V290L773.2 340.8C773.3 340.8 773.3 340.8 773.2 340.8ZM765.8 307.1L773.2 340.3L791.5 290.2L765.8 307.1Z" fill="#3D9096"/>
<path d="M791.5 366.9C791.4 366.8 791.4 366.8 791.4 366.8L803.8 336.5L803.9 336.4C803.9 336.4 804 336.4 804 336.5L807.9 364.1C807.9 364.2 807.9 364.2 807.8 364.2L791.5 366.9ZM803.9 336.9L791.7 366.7L807.7 364.1L803.9 336.9Z" fill="#3D9096"/>
<path d="M817 308.3L806 293.4V293.3H806.1L822.2 297.8C822.2 297.8 822.2 297.8 822.3 297.9V298L817 308.3C817.1 308.3 817.1 308.3 817 308.3ZM806.3 293.5L817 308L822.1 297.9L806.3 293.5Z" fill="#3D9096"/>
<path d="M822 329.1L808.7 324.8C808.7 324.8 808.7 324.8 808.6 324.7V324.6L816.9 308.1C816.9 308.1 816.9 308 817 308C817 308 817.1 308 817.1 308.1L822.1 329C822.1 329.1 822.1 329.1 822 329.1C822.1 329.1 822 329.1 822 329.1ZM808.9 324.7L821.9 328.9L817 308.5L808.9 324.7Z" fill="#3D9096"/>
<path d="M791.5 340.8C791.4 340.8 791.4 340.7 791.5 340.8L791.6 319.6V319.5H791.7L808.8 324.7C808.8 324.7 808.9 324.7 808.9 324.8C808.9 324.9 808.9 324.9 808.9 324.9L791.5 340.8C791.6 340.8 791.5 340.8 791.5 340.8ZM791.8 319.7L791.6 340.5L808.6 324.8L791.8 319.7Z" fill="#3D9096"/>
<path d="M755.1 313.2C755 313.2 755 313.1 755.1 313.2C755 313.2 755 313.1 755 313.1L762.5 294.7C762.5 294.7 762.5 294.7 762.6 294.6H762.7L774.8 301.1C774.8 301.1 774.8 301.1 774.8 301.2V301.3L755.1 313.2C755.1 313.1 755.1 313.2 755.1 313.2ZM762.6 294.8L755.2 312.8L774.5 301.1L762.6 294.8Z" fill="#3D9096"/>
<path d="M745.3 374.9C745.2 374.9 745.2 374.9 745.3 374.9L732.3 361.1V361C732.3 361 732.3 360.9 732.4 360.9L745.5 357.1H745.6C745.6 357.1 745.6 357.1 745.6 357.2L745.3 374.9C745.4 374.8 745.3 374.9 745.3 374.9ZM732.5 361.1L745.1 374.6L745.3 357.4L732.5 361.1Z" fill="#3D9096"/>
<path d="M791.5 378.2L757.7 358.5C757.7 358.5 757.6 358.4 757.7 358.4L757.8 358.3L777.5 361.7C777.5 361.7 777.5 361.7 777.6 361.7L791.7 378C791.6 378.1 791.6 378.1 791.5 378.2C791.6 378.2 791.5 378.2 791.5 378.2ZM758.2 358.6L791 377.8L777.3 361.9L758.2 358.6Z" fill="#3D9096"/>
<path d="M791.5 378.2L745.2 374.9H745.1C745.1 374.9 745.1 374.9 745.1 374.8L745.4 372.9C745.4 372.9 745.4 372.8 745.5 372.8L777.3 361.7H777.4L791.5 378C791.6 378.1 791.6 378.1 791.5 378.2C791.6 378.2 791.5 378.2 791.5 378.2ZM745.4 374.7L791.3 378L777.4 361.9L745.7 372.9L745.4 374.7Z" fill="#3D9096"/>
<path d="M791.5 378.2L769.7 376.6C769.7 376.6 769.6 376.6 769.6 376.5L768.7 364.8V364.7H768.8L791.6 378C791.6 378.1 791.6 378.1 791.5 378.2C791.6 378.2 791.6 378.2 791.5 378.2ZM769.8 376.5L791.1 378L768.8 365L769.8 376.5Z" fill="#3D9096"/>
<path d="M791.5 378.2C791.5 378.2 791.4 378.2 791.5 378.2C791.4 378.1 791.4 378.1 791.4 378L807.7 364H807.8L822 373.2V373.3C822 373.3 822 373.4 821.9 373.4L791.5 378.2ZM807.8 364.3L791.8 378L821.7 373.3L807.8 364.3Z" fill="#3D9096"/>
<path d="M791.6 366.9C791.5 366.9 791.5 366.9 791.6 366.9C791.5 366.9 791.5 366.9 791.6 366.9L791.5 340.7C791.5 340.7 791.5 340.6 791.6 340.6H791.7L808 364.1V364.2C808 364.2 808 364.3 807.9 364.3L791.6 366.9ZM791.6 341V366.7L807.6 364.1L791.6 341Z" fill="#3D9096"/>
<path d="M807.8 364.3C807.8 364.3 807.8 364.2 807.8 364.3C807.7 364.2 807.7 364.2 807.7 364.2L821.9 329.1L822 329C822 329 822.1 329 822.1 329.1L822.3 361.9C822.3 361.9 822.3 362 822.2 362L807.8 364.3ZM821.9 329.5L808 364L822.1 361.7L821.9 329.5Z" fill="#3D9096"/>
<path d="M723.3 323.3C723.3 324 722.8 324.5 722.1 324.5C721.4 324.5 720.9 323.9 720.9 323.3C720.9 322.6 721.4 322.1 722.1 322.1C722.8 322.1 723.3 322.7 723.3 323.3Z" fill="#3D9096"/>
<path d="M725.9 276.8C725.9 277.5 725.4 278 724.7 278C724 278 723.5 277.4 723.5 276.8C723.5 276.1 724 275.6 724.7 275.6C725.4 275.6 725.9 276.1 725.9 276.8Z" fill="#3D9096"/>
<path d="M746.5 259.4C746.5 260.1 746 260.6 745.3 260.6C744.6 260.6 744.1 260 744.1 259.4C744.1 258.7 744.6 258.2 745.3 258.2C745.9 258.2 746.5 258.7 746.5 259.4Z" fill="#3D9096"/>
<path d="M740.1 272.5C740.1 273.2 739.6 273.7 738.9 273.7C738.2 273.7 737.7 273.1 737.7 272.5C737.7 271.9 738.2 271.3 738.9 271.3C739.6 271.3 740.1 271.9 740.1 272.5Z" fill="#3D9096"/>
<path d="M722.9 246.8C722.9 247.5 722.4 248 721.7 248C721 248 720.5 247.4 720.5 246.8C720.5 246.1 721 245.6 721.7 245.6C722.3 245.6 722.9 246.2 722.9 246.8Z" fill="#3D9096"/>
<path d="M746.5 297.5C746.5 298.2 746 298.7 745.3 298.7C744.6 298.7 744.1 298.1 744.1 297.5C744.1 296.9 744.6 296.3 745.3 296.3C745.9 296.2 746.5 296.8 746.5 297.5Z" fill="#3D9096"/>
<path d="M722.2 297.9C722.2 298.6 721.7 299.1 721 299.1C720.3 299.1 719.8 298.5 719.8 297.9C719.8 297.2 720.3 296.7 721 296.7C721.6 296.7 722.2 297.2 722.2 297.9Z" fill="#3D9096"/>
<path d="M770 364.8C770 365.5 769.5 366 768.8 366C768.1 366 767.6 365.4 767.6 364.8C767.6 364.2 768.1 363.6 768.8 363.6C769.4 363.6 770 364.1 770 364.8Z" fill="#3D9096"/>
<path d="M782.2 351.5C782.2 352.2 781.7 352.7 781 352.7C780.3 352.7 779.8 352.1 779.8 351.5C779.8 350.9 780.3 350.3 781 350.3C781.7 350.3 782.2 350.8 782.2 351.5Z" fill="#3D9096"/>
<path d="M805 336.5C805 337.2 804.5 337.7 803.8 337.7C803.1 337.7 802.6 337.1 802.6 336.5C802.6 335.8 803.1 335.3 803.8 335.3C804.5 335.3 805 335.9 805 336.5Z" fill="#3D9096"/>
<path d="M814.8 350C814.8 350.7 814.3 351.2 813.6 351.2C812.9 351.2 812.4 350.6 812.4 350C812.4 349.3 812.9 348.8 813.6 348.8C814.3 348.8 814.8 349.3 814.8 350Z" fill="#3D9096"/>
<path d="M818.3 308.2C818.3 308.9 817.8 309.4 817.1 309.4C816.4 309.4 815.9 308.8 815.9 308.2C815.9 307.6 816.4 307 817.1 307C817.8 306.9 818.3 307.5 818.3 308.2Z" fill="#3D9096"/>
<path d="M807.6 293.4C807.6 294.1 807.1 294.6 806.4 294.6C805.7 294.6 805.2 294 805.2 293.4C805.2 292.7 805.7 292.2 806.4 292.2C807.1 292.2 807.6 292.7 807.6 293.4Z" fill="#3D9096"/>
<path d="M809 364.3C809 365 808.5 365.5 807.8 365.5C807.1 365.5 806.6 364.9 806.6 364.3C806.6 363.6 807.1 363.1 807.8 363.1C808.5 363 809 363.6 809 364.3Z" fill="#3D9096"/>
<path d="M770.3 321.9C770.3 322.6 769.8 323.1 769.1 323.1C768.4 323.1 767.9 322.5 767.9 321.9C767.9 321.2 768.4 320.7 769.1 320.7C769.8 320.7 770.3 321.2 770.3 321.9Z" fill="#3D9096"/>
<path d="M775.9 301.2C775.9 301.9 775.4 302.4 774.7 302.4C774 302.4 773.5 301.8 773.5 301.2C773.5 300.6 774 300 774.7 300C775.4 299.9 775.9 300.5 775.9 301.2Z" fill="#3D9096"/>
<path d="M783.7 315.4C783.7 316.1 783.2 316.6 782.5 316.6C781.8 316.6 781.3 316 781.3 315.4C781.3 314.7 781.8 314.2 782.5 314.2C783.2 314.2 783.7 314.7 783.7 315.4Z" fill="#3D9096"/>
<path d="M756.2 313C756.2 313.7 755.7 314.2 755 314.2C754.3 314.2 753.8 313.6 753.8 313C753.8 312.3 754.3 311.8 755 311.8C755.7 311.8 756.2 312.4 756.2 313Z" fill="#3D9096"/>
<path d="M746.5 374.8C746.5 375.5 746 376 745.3 376C744.6 376 744.1 375.4 744.1 374.8C744.1 374.1 744.6 373.6 745.3 373.6C745.9 373.6 746.5 374.1 746.5 374.8Z" fill="#3D9096"/>
<path d="M722 353.5C722 354.2 721.5 354.7 720.8 354.7C720.1 354.7 719.6 354.1 719.6 353.5C719.6 352.9 720.1 352.3 720.8 352.3C721.5 352.3 722 352.8 722 353.5Z" fill="#3D9096"/>
<path d="M739.6 341.4C739.6 342.1 739.1 342.6 738.4 342.6C737.7 342.6 737.2 342 737.2 341.4C737.2 340.7 737.7 340.2 738.4 340.2C739 340.2 739.6 340.7 739.6 341.4Z" fill="#3D9096"/>
<path d="M732.3 375.5H732.2L711.6 372.1C711.3 372 711 371.7 711 371.4V259.4C711 259 711.3 258.7 711.7 258.7C712.1 258.7 712.4 259 712.4 259.4V370.7L732.3 374L745.2 373.6C745.6 373.6 745.9 373.9 745.9 374.3C745.9 374.7 745.6 375 745.2 375L732.3 375.5Z" fill="#3D9096"/>
<path d="M791.1 378.8C791 378.8 791 378.8 791.1 378.8L745.2 375.1C744.8 375.1 744.6 374.8 744.6 374.4V297.9C744.6 297.6 744.8 297.3 745.2 297.2L791.7 288.5C791.8 288.5 791.9 288.5 792 288.5L822.3 297.2C822.6 297.3 822.8 297.6 822.8 297.9V372.9C822.8 373.2 822.6 373.5 822.2 373.6L791.2 378.8C791.1 378.8 791.1 378.8 791.1 378.8ZM746 373.8L791.1 377.4L821.4 372.3V298.5L791.8 290L746 298.5V373.8Z" fill="#3D9096"/>
<path d="M791.5 378.8C791.1 378.8 790.8 378.5 790.8 378.1V289.2C790.8 288.8 791.1 288.5 791.5 288.5C791.9 288.5 792.2 288.8 792.2 289.2V378.1C792.2 378.5 791.9 378.8 791.5 378.8Z" fill="#3D9096"/>
<path d="M745.3 372.4C744.9 372.4 744.6 372.1 744.6 371.7V242.9L732.1 233.6L712.8 241V370.1C712.8 370.5 712.5 370.8 712.1 370.8C711.7 370.8 711.4 370.5 711.4 370.1V240.6C711.4 240.3 711.6 240 711.9 239.9L732 232.2C732.2 232.1 732.5 232.1 732.7 232.3L745.8 242C746 242.1 746.1 242.3 746.1 242.6V371.7C746 372.1 745.6 372.4 745.3 372.4Z" fill="#3D9096"/>
<path d="M732.2 375.3C731.8 375.3 731.5 375 731.5 374.6V233.1C731.5 232.7 731.8 232.4 732.2 232.4C732.6 232.4 732.9 232.7 732.9 233.1V374.5C732.9 375 732.6 375.3 732.2 375.3Z" fill="#3D9096"/>
<path d="M747.9 242.7C747.9 244.2 746.8 245.4 745.5 245.4C744.2 245.4 743.1 244.2 743.1 242.7C743.1 241.2 744.2 240 745.5 240C746.8 240 747.9 241.2 747.9 242.7Z" fill="#3D9096"/>
<path d="M747.9 297.6C747.9 299.1 746.8 300.3 745.5 300.3C744.2 300.3 743.1 299.1 743.1 297.6C743.1 296.1 744.2 294.9 745.5 294.9C746.8 294.9 747.9 296.1 747.9 297.6Z" fill="#3D9096"/>
<path d="M747.9 373.9C747.9 375.4 746.8 376.6 745.5 376.6C744.2 376.6 743.1 375.4 743.1 373.9C743.1 372.4 744.2 371.2 745.5 371.2C746.8 371.2 747.9 372.4 747.9 373.9Z" fill="#3D9096"/>
<path d="M713.9 370.9C713.9 372.4 712.8 373.6 711.5 373.6C710.2 373.6 709.1 372.4 709.1 370.9C709.1 369.4 710.2 368.2 711.5 368.2C712.8 368.2 713.9 369.4 713.9 370.9Z" fill="#3D9096"/>
<path d="M824.6 298.1C824.6 299.6 823.5 300.8 822.2 300.8C820.9 300.8 819.8 299.6 819.8 298.1C819.8 296.6 820.9 295.4 822.2 295.4C823.6 295.4 824.6 296.6 824.6 298.1Z" fill="#3D9096"/>
<path d="M824.6 372.5C824.6 374 823.5 375.2 822.2 375.2C820.9 375.2 819.8 374 819.8 372.5C819.8 371 820.9 369.8 822.2 369.8C823.6 369.8 824.6 371 824.6 372.5Z" fill="#3D9096"/>
<path d="M735 233.2C735 234.8 733.8 236.1 732.3 236.1C730.8 236.1 729.6 234.8 729.6 233.2C729.6 231.6 730.8 230.3 732.3 230.3C733.8 230.3 735 231.6 735 233.2Z" fill="#3D9096"/>
<path d="M735 374.4C735 376 733.8 377.3 732.3 377.3C730.8 377.3 729.6 376 729.6 374.4C729.6 372.8 730.8 371.5 732.3 371.5C733.8 371.5 735 372.8 735 374.4Z" fill="#3D9096"/>
<path d="M794.2 289.6C794.2 291.2 793 292.5 791.5 292.5C790 292.5 788.8 291.2 788.8 289.6C788.8 288 790 286.7 791.5 286.7C793 286.7 794.2 288 794.2 289.6Z" fill="#3D9096"/>
<path d="M794.2 378.2C794.2 379.8 793 381.1 791.5 381.1C790 381.1 788.8 379.8 788.8 378.2C788.8 376.6 790 375.3 791.5 375.3C793 375.3 794.2 376.6 794.2 378.2Z" fill="#3D9096"/>
<g opacity="0.5">
<path opacity="0.5" d="M982.6 40.9H0V44.9H982.6V40.9Z" fill="#D5ECEE"/>
</g>
<g opacity="0.5">
<path opacity="0.5" d="M205.2 442.9H46.2V446.9H205.2V442.9Z" fill="#D5ECEE"/>
</g>
<path d="M256.9 471.8C256.8 471.8 256.7 471.7 256.7 471.6V436.6L207.2 453.5V457.7C207.2 457.8 207.1 457.9 207 457.9C206.9 457.9 206.8 457.8 206.8 457.7V453.3C206.8 453.2 206.9 453.1 206.9 453.1L256.8 436.1C256.9 436.1 256.9 436.1 257 436.1C257.1 436.1 257.1 436.2 257.1 436.3V471.6C257.1 471.7 257 471.8 256.9 471.8Z" fill="#3D9096"/>
<path d="M333.3 451.8L256.9 436.5C256.8 436.5 256.7 436.4 256.7 436.3V375.1C256.7 375 256.7 374.9 256.8 374.9C256.9 374.9 257 374.9 257 374.9L333.4 451.4C333.5 451.5 333.5 451.6 333.4 451.6C333.5 451.8 333.4 451.8 333.3 451.8ZM257.1 436.2L332.7 451.3L257.1 375.6V436.2Z" fill="#3D9096"/>
<g opacity="0.5">
<path opacity="0.5" d="M513.2 175.7H462.2V179.7H513.2V175.7Z" fill="#D5ECEE"/>
</g>
<g opacity="0.2">
<path opacity="0.2" d="M461 446.8V55.2L383.4 37.3L439.8 67.8L461 446.8Z" fill="#3D9096"/>
</g>
<g opacity="0.5">
<path opacity="0.5" d="M333.295 175.149L186.195 175.652L186.208 179.652L333.308 179.149L333.295 175.149Z" fill="#D5ECEE"/>
</g>
<g opacity="0.1">
<path opacity="0.1" d="M207 453.3L256.9 375.1L288.2 406.5L333.7 451.6L334.4 212.3L257.3 193.7L207 212.3V453.3Z" fill="#3D9096"/>
</g>
<g opacity="0.1">
<path opacity="0.1" d="M333.3 438.9L383.5 421L461 446.8V55.2L383.4 37.3L333.7 55.2L333.3 438.9Z" fill="#3D9096"/>
</g>
<path d="M257.3 247.7H257.2L207 212.4C206.9 212.4 206.9 212.3 206.9 212.2C206.9 212.1 207 212.1 207 212L234.5 201.9C234.6 201.9 234.7 201.9 234.7 202L257.4 247.5C257.4 247.6 257.4 247.7 257.4 247.7H257.3ZM207.5 212.2L256.8 246.9L234.5 202.3L207.5 212.2Z" fill="#3D9096"/>
<path d="M236.8 301.7H236.7L207 279.4C207 279.4 206.9 279.3 206.9 279.2C206.9 279.1 206.9 279.1 207 279L257.2 247.3C257.3 247.3 257.4 247.3 257.4 247.3C257.5 247.4 257.5 247.4 257.5 247.5L237 301.5C236.9 301.6 236.9 301.6 236.8 301.7ZM207.4 279.2L236.7 301.2L256.9 248L207.4 279.2Z" fill="#3D9096"/>
<path d="M257.3 375.3H257.2L206.2 337L206.1 336.9C206.1 336.8 206.1 336.8 206.1 336.8L236.5 301.5C236.5 301.4 236.6 301.4 236.7 301.4C236.8 301.4 236.8 301.5 236.8 301.5L257.3 375.1C257.3 375.2 257.3 375.3 257.2 375.3C257.3 375.3 257.3 375.3 257.3 375.3ZM206.6 336.8L256.9 374.6L236.6 301.9L206.6 336.8Z" fill="#3D9096"/>
<path d="M207 453.4C206.9 453.4 206.8 453.3 206.8 453.2L206.1 336.8C206.1 336.7 206.1 336.7 206.2 336.6C206.3 336.6 206.3 336.6 206.4 336.6L257.3 374.9C257.4 375 257.4 375.1 257.3 375.2L207.1 453.4C207.2 453.4 207.1 453.4 207 453.4ZM206.5 337.2L207.2 452.6L257 375.1L206.5 337.2Z" fill="#3D9096"/>
<path d="M256.9 301.9H256.8C256.6 301.9 256.5 301.7 256.5 301.5V247.5C256.5 247.3 256.6 247.2 256.8 247.1L300.2 232.3C300.3 232.2 300.5 232.3 300.6 232.4C300.7 232.5 300.7 232.7 300.6 232.8L257.2 301.6C257.2 301.8 257 301.9 256.9 301.9ZM257.3 247.8V300.2L299.4 233.4L257.3 247.8Z" fill="#3D9096"/>
<path d="M300.3 232.9C300.3 232.9 300.2 232.9 300.2 232.8L258.4 194C258.3 193.9 258.3 193.8 258.4 193.8C258.4 193.7 258.5 193.7 258.6 193.7L334.5 211.9C334.6 211.9 334.6 212 334.6 212.1C334.6 212.2 334.6 212.3 334.5 212.3L300.3 232.9C300.4 232.9 300.3 232.9 300.3 232.9ZM259.1 194.3L300.3 232.5L333.9 212.2L259.1 194.3Z" fill="#3D9096"/>
<path d="M303.5 322.6C303.5 322.6 303.4 322.6 303.5 322.6C303.4 322.6 303.3 322.5 303.3 322.4L300.1 232.7C300.1 232.6 300.2 232.5 300.2 232.5C300.3 232.5 300.4 232.5 300.4 232.6L333.8 295.2C333.8 295.3 333.8 295.4 333.8 295.4L303.6 322.5C303.6 322.6 303.5 322.6 303.5 322.6ZM300.5 233.5L303.6 322L333.4 295.2L300.5 233.5Z" fill="#3D9096"/>
<path d="M257.3 375.3C257.3 375.3 257.2 375.3 257.3 375.3C257.2 375.3 257.1 375.2 257.1 375.1L256.7 301.5C256.7 301.4 256.7 301.4 256.8 301.3C256.9 301.3 256.9 301.3 257 301.3L303.6 322.3C303.7 322.3 303.7 322.4 303.7 322.4C303.7 322.4 303.7 322.5 303.7 322.6L257.5 375.2C257.4 375.2 257.3 375.3 257.3 375.3ZM257.1 301.8L257.4 374.6L303.1 322.5L257.1 301.8Z" fill="#3D9096"/>
<path d="M310.3 385.3C310.2 385.3 310.1 385.2 310.1 385.1L303.3 322.4C303.3 322.3 303.3 322.3 303.4 322.2L333.6 295.1C333.7 295 333.8 295 333.8 295.1C333.9 295.1 333.9 295.2 333.9 295.3L310.6 385.1C310.5 385.3 310.4 385.3 310.3 385.3ZM303.7 322.5L310.4 384.1L333.3 295.9L303.7 322.5Z" fill="#3D9096"/>
<path d="M333.7 451.8C333.7 451.8 333.6 451.8 333.7 451.8L257.3 436.5C257.2 436.5 257.2 436.4 257.2 436.4C257.2 436.3 257.2 436.3 257.2 436.2L310.3 385C310.3 385 310.4 384.9 310.5 385C310.6 385 310.6 385.1 310.6 385.1L333.9 451.6C333.9 451.7 333.9 451.7 333.9 451.8C333.8 451.8 333.7 451.8 333.7 451.8ZM257.7 436.2L333.4 451.4L310.3 385.5L257.7 436.2Z" fill="#3D9096"/>
<path d="M256.9 436.7H256.8C256.7 436.6 256.6 436.5 256.6 436.4V375.2C256.6 375.1 256.7 375 256.7 374.9C256.8 374.8 256.9 374.8 257 374.8L310.1 384.9C310.2 384.9 310.4 385 310.4 385.2C310.4 385.3 310.4 385.5 310.3 385.6L257.2 436.8C257.1 436.7 257 436.7 256.9 436.7ZM257.3 375.5V435.4L309.2 385.4L257.3 375.5Z" fill="#3D9096"/>
<path d="M333.7 144C333.6 144 333.6 144 333.7 144C333.5 143.9 333.5 143.9 333.5 143.8L358.6 46.3C358.6 46.2 358.7 46.2 358.7 46.2C358.8 46.2 358.8 46.2 358.9 46.3L384 81.7C384 81.8 384 81.9 384 81.9L333.8 143.9C333.8 144 333.7 144 333.7 144ZM358.9 46.8L334.1 143L383.7 81.7L358.9 46.8Z" fill="#3D9096"/>
<path d="M365.2 176.2C365.2 176.2 365.1 176.2 365.1 176.1L333.6 143.9C333.5 143.8 333.5 143.7 333.6 143.6L383.8 81.6C383.9 81.5 383.9 81.5 384 81.5C384.1 81.5 384.1 81.6 384.1 81.7L365.4 176C365.3 176.1 365.3 176.2 365.2 176.2ZM333.9 143.8L365 175.7L383.5 82.5L333.9 143.8Z" fill="#3D9096"/>
<path d="M333.7 295.5C333.6 295.5 333.5 295.4 333.5 295.3L334.2 212.2V212.1L365 176C365.1 175.9 365.2 175.9 365.2 176C365.3 176 365.3 176.1 365.3 176.2L333.8 295.5C333.8 295.4 333.8 295.5 333.7 295.5ZM334.6 212.2L333.9 293.8L364.8 176.8L334.6 212.2Z" fill="#3D9096"/>
<path d="M362 305.6C362 305.6 361.9 305.6 362 305.6C361.9 305.6 361.8 305.5 361.8 305.4L365 176C365 175.9 365.1 175.8 365.2 175.8C365.3 175.8 365.4 175.8 365.4 175.9L384.1 235.5V235.6L362.2 305.3C362.1 305.5 362 305.6 362 305.6ZM365.3 177.2L362.2 304L383.7 235.6L365.3 177.2Z" fill="#3D9096"/>
<path d="M333.3 452C333.1 452 332.9 451.8 332.9 451.6V295.3C332.9 295.2 333 295.1 333.1 295C333.2 294.9 333.3 294.9 333.4 295L361.7 305.1C361.9 305.2 362 305.3 361.9 305.5L333.6 451.8C333.7 451.9 333.5 452 333.3 452ZM333.7 295.8V447.7L361.2 305.6L333.7 295.8Z" fill="#3D9096"/>
<path d="M383.5 421.4C383.3 421.4 383.2 421.3 383.1 421.1L360.8 305.5C360.8 305.4 360.8 305.4 360.8 305.3L383.1 235.6C383.2 235.4 383.3 235.3 383.5 235.3C383.7 235.3 383.8 235.5 383.8 235.7V421C383.9 421.2 383.8 421.4 383.5 421.4C383.6 421.4 383.6 421.4 383.5 421.4ZM361.6 305.4L383.1 417.1V238.1L361.6 305.4Z" fill="#3D9096"/>
<path d="M435.1 103.4C435.1 103.4 435 103.4 435.1 103.4C435 103.4 434.9 103.3 434.9 103.3L422.3 46.4C422.3 46.3 422.3 46.3 422.4 46.2C422.4 46.2 422.5 46.1 422.6 46.2L461.2 55.4C461.3 55.4 461.3 55.5 461.3 55.5C461.3 55.6 461.3 55.6 461.3 55.7L435.4 103.4C435.2 103.4 435.1 103.4 435.1 103.4ZM422.7 46.6L435.2 102.7L460.8 55.7L422.7 46.6Z" fill="#3D9096"/>
<path d="M435.1 103.4C435 103.4 435 103.4 435.1 103.4L383.9 81.9C383.8 81.9 383.8 81.8 383.8 81.8C383.8 81.7 383.8 81.7 383.9 81.6L422.4 46.2C422.4 46.2 422.5 46.1 422.6 46.2C422.7 46.2 422.7 46.3 422.7 46.3L435.3 103.2C435.3 103.3 435.3 103.3 435.2 103.4H435.1ZM384.2 81.7L434.8 102.9L422.3 46.6L384.2 81.7Z" fill="#3D9096"/>
<path d="M427.4 256C427.4 256 427.3 256 427.4 256L383.5 235.8C383.4 235.8 383.4 235.7 383.4 235.6C383.4 235.6 383.4 235.5 383.5 235.5C384.2 234.3 400.7 194.5 409.4 173.5C409.4 173.4 409.5 173.4 409.6 173.4C409.7 173.4 409.8 173.5 409.8 173.5L427.7 255.7C427.7 255.8 427.7 255.8 427.6 255.9C427.5 256 427.4 256 427.4 256ZM383.8 235.6L427.2 255.5L409.5 174.3C408.3 177.2 402.6 191.1 396.9 204.8C386.6 229.3 384.4 234.5 383.8 235.6Z" fill="#3D9096"/>
<path d="M409.5 173.8C409.4 173.8 409.3 173.7 409.3 173.7L383.7 81.8C383.7 81.7 383.7 81.7 383.8 81.6C383.9 81.6 383.9 81.5 384 81.6L435.2 103.1C435.3 103.1 435.3 103.2 435.3 103.3L409.7 173.7C409.6 173.8 409.6 173.8 409.5 173.8ZM384.2 82.1L409.5 173L434.8 103.3L384.2 82.1Z" fill="#3D9096"/>
<path d="M409.5 173.8C409.4 173.8 409.4 173.8 409.4 173.7C409.4 173.6 409.3 173.6 409.4 173.5L435 103.1C435 103 435.1 103 435.2 103C435.3 103 435.3 103 435.4 103.1L461.3 160.6C461.3 160.7 461.3 160.7 461.3 160.8C461.3 160.9 461.2 160.9 461.2 160.9L409.5 173.8ZM435.1 103.8L409.8 173.4L460.8 160.6L435.1 103.8Z" fill="#3D9096"/>
<path d="M460.7 336C460.6 336 460.4 335.9 460.4 335.8L426.7 256C426.7 255.9 426.7 255.8 426.7 255.7L460.3 160.6C460.4 160.4 460.5 160.3 460.7 160.4C460.9 160.4 461 160.6 461 160.8V335.7C461 335.8 460.9 335.9 460.7 336ZM427.5 255.8L460.3 333.7V162.9L427.5 255.8Z" fill="#3D9096"/>
<path d="M383.5 345C383.4 345 383.4 345 383.3 344.9C383.3 344.8 383.3 344.8 383.3 344.7L426.8 255.7C426.8 255.6 426.9 255.6 427 255.6C427.1 255.6 427.1 255.6 427.2 255.7L460.8 335.5C460.8 335.6 460.8 335.6 460.8 335.7C460.8 335.8 460.7 335.8 460.7 335.8L383.5 345C383.6 345 383.6 345 383.5 345ZM427 256.3L383.8 344.7L460.3 335.5L427 256.3Z" fill="#3D9096"/>
<path d="M461 447C460.9 447 460.9 447 460.8 446.9L383.4 345C383.4 344.9 383.4 344.9 383.4 344.8C383.4 344.7 383.5 344.7 383.6 344.7L460.7 335.4H460.8L460.9 335.5L461.3 446.7C461.2 446.9 461.1 446.9 461 447ZM383.9 345L460.8 446.2L460.4 335.8L383.9 345Z" fill="#3D9096"/>
<g opacity="0.2">
<path opacity="0.2" d="M207 267.1V212.3L257.3 193.7L334.4 212.2L333.9 381.3L317 224.8L281.8 215.6L256.9 247.5L241.3 215.6L207 267.1Z" fill="#3D9096"/>
</g>
<g opacity="0.2">
<path opacity="0.2" d="M334.4 212.2L317 224.8L312.5 332.6L333.7 449.8L334.4 212.2Z" fill="#3D9096"/>
</g>
<g opacity="0.2">
<path opacity="0.2" d="M207 212.3L257.3 217.1L334.4 212.2L257.3 193.7L207 212.3Z" fill="#3D9096"/>
</g>
<g opacity="0.2">
<path opacity="0.2" d="M333.7 55.2V295.3L347.5 90.3L383.4 37.3L333.7 55.2Z" fill="#3D9096"/>
</g>
<g opacity="0.2">
<path opacity="0.2" d="M383.4 37.3L384.6 416.6L397.3 242L390.3 58.4L461 55.2L383.4 37.3Z" fill="#3D9096"/>
</g>
<g opacity="0.2">
<path opacity="0.2" d="M333.7 55.2L383.4 37.3L383.5 344.9L370.5 66.5L333.7 55.2Z" fill="#3D9096"/>
</g>
<path d="M411.8 455C411.7 455 411.7 454.9 411.7 454.9L427 255.9C427 255.9 427 255.8 427.1 255.8C427.1 255.8 427.2 255.8 427.2 255.9L460.8 335.7V335.8L411.8 455C411.9 454.9 411.8 455 411.8 455ZM427.1 256.2L411.9 454.2L460.5 335.6L427.1 256.2Z" fill="#3D9096"/>
<path d="M427 255.9L409.3 173.6C409.3 173.6 409.3 173.5 409.4 173.5H409.5L461 226.8C461 226.8 461 226.8 461 226.9V227L427 255.9C427.1 255.9 427.1 255.9 427 255.9ZM409.7 173.9L427.2 255.6L460.9 226.9L409.7 173.9Z" fill="#3D9096"/>
<path d="M383.5 345.1C383.4 345.1 383.3 345 383.3 344.9V235.7V235.6L409.2 173.6C409.2 173.5 409.3 173.5 409.4 173.5C409.5 173.5 409.6 173.6 409.5 173.7L383.6 344.9C383.7 345 383.6 345.1 383.5 345.1ZM383.7 235.7V342.2L409 175.2L383.7 235.7Z" fill="#3D9096"/>
<path d="M435.1 103.5C435 103.5 435 103.5 434.9 103.4L383.2 37.4C383.1 37.3 383.1 37.2 383.2 37.2C383.2 37.1 383.3 37.1 383.4 37.1L440.5 50.3C440.6 50.3 440.7 50.4 440.7 50.5L435.3 103.3C435.3 103.4 435.2 103.4 435.1 103.5C435.1 103.4 435.1 103.5 435.1 103.5ZM383.9 37.6L435 102.7L440.3 50.6L383.9 37.6Z" fill="#3D9096"/>
<path d="M365.2 176.2C365.1 176.2 365 176.1 365 176L333.5 55.2C333.5 55.1 333.5 55 333.6 55L358.7 46.1C358.8 46.1 358.8 46.1 358.9 46.1C359 46.1 359 46.2 359 46.3L365.4 176C365.4 176.1 365.3 176.2 365.2 176.2ZM333.9 55.3L364.8 174.1L358.6 46.6L333.9 55.3Z" fill="#3D9096"/>
<path d="M365.2 176.2C365.1 176.2 365.1 176.2 365.2 176.2C365 176.1 365 176.1 365 176L383.7 81.7C383.7 81.6 383.8 81.5 383.9 81.5C384 81.5 384.1 81.6 384.1 81.6L409.6 173.5C409.6 173.6 409.6 173.7 409.5 173.7C409.4 173.7 409.3 173.7 409.3 173.7L383.7 152.3L365.3 176.1C365.3 176.2 365.2 176.2 365.2 176.2ZM383.9 82.6L365.5 175.2L383.5 151.9L383.6 151.8C383.7 151.8 383.7 151.8 383.8 151.8L409 172.9L383.9 82.6Z" fill="#3D9096"/>
<path d="M361.3 305.6C361.2 305.6 361.2 305.6 361.3 305.6L333.3 295.5C333.2 295.5 333.2 295.4 333.2 295.3L334.3 212.3C334.3 212.2 334.4 212.1 334.5 212.1C334.6 212.1 334.7 212.1 334.7 212.2L361.6 305.3C361.6 305.4 361.6 305.5 361.5 305.5C361.4 305.6 361.3 305.6 361.3 305.6ZM333.5 295.2L360.9 305.1L334.5 213.7L333.5 295.2Z" fill="#3D9096"/>
<path d="M383.5 421.2C383.4 421.2 383.3 421.2 383.3 421.1L333.1 295.4C333.1 295.3 333.1 295.2 333.1 295.2C333.2 295.1 333.2 295.1 333.3 295.2L361.2 305.3C361.3 305.3 361.3 305.4 361.3 305.5L383.7 421C383.8 421.1 383.7 421.2 383.5 421.2C383.6 421.2 383.6 421.2 383.5 421.2ZM333.7 295.6L382.9 419L361 305.6L333.7 295.6Z" fill="#3D9096"/>
<path d="M309.9 385.4L256.8 375.4C256.7 375.4 256.6 375.3 256.6 375.2V301.6C256.6 301.5 256.7 301.4 256.7 301.4C256.8 301.4 256.9 301.4 256.9 301.5L310 385.2C310 385.3 310 385.4 310 385.4C310.1 385.3 310 385.4 309.9 385.4ZM257.1 374.9L309.5 384.8L257.1 302.1V374.9Z" fill="#3D9096"/>
<path d="M284.1 344.7C284 344.7 283.9 344.6 283.9 344.5L257.1 194.4C257.1 194.3 257.1 194.2 257.2 194.2C257.3 194.2 257.4 194.2 257.4 194.2L300.4 232.6C300.5 232.6 300.5 232.7 300.5 232.8L284.3 344.6C284.3 344.6 284.2 344.7 284.1 344.7ZM257.6 194.9L284.1 343.3L300.1 232.9L257.6 194.9Z" fill="#3D9096"/>
<path d="M309.9 385.4C309.9 385.4 309.9 385.3 309.9 385.4C309.8 385.4 309.7 385.3 309.7 385.2L303.3 322.5C303.3 322.4 303.3 322.3 303.4 322.3C303.5 322.3 303.6 322.3 303.6 322.4L334.5 365.8C334.6 365.9 334.5 366 334.5 366.1L310 385.4C310 385.3 310 385.4 309.9 385.4ZM303.8 323.2L310.1 384.8L334.1 365.8L303.8 323.2Z" fill="#3D9096"/>
<path d="M334.3 249.8C334.2 249.8 334.2 249.8 334.3 249.8L300.2 232.9C300.1 232.9 300.1 232.7 300.1 232.7L309.7 206.4C309.7 206.3 309.8 206.2 309.9 206.3L334.4 212.2C334.5 212.2 334.6 212.3 334.6 212.4L334.5 249.7C334.5 249.8 334.5 249.8 334.4 249.9C334.3 249.8 334.3 249.8 334.3 249.8ZM300.6 232.6L334.1 249.3L334.2 212.5L310.1 206.7L300.6 232.6Z" fill="#3D9096"/>
<path d="M236.8 301.7C236.7 301.7 236.6 301.6 236.6 301.6L206.9 212.4C206.9 212.3 206.9 212.2 207 212.1L234.5 201.8C234.6 201.8 234.6 201.8 234.7 201.8C234.8 201.8 234.8 201.9 234.8 202L237 301.4C237 301.6 236.9 301.7 236.8 301.7ZM207.3 212.4L236.5 300.1L234.3 202.3L207.3 212.4Z" fill="#3D9096"/>
<path d="M207 453.5C206.8 453.4 206.8 453.4 206.8 453.3L236.3 301.4C236.3 301.3 236.4 301.2 236.5 301.2H257C257.1 301.2 257.1 301.2 257.1 301.3L257.2 301.4L257 375.1V375.2L207.2 453.4C207.2 453.5 207.1 453.5 207 453.5ZM236.7 301.6L207.4 452.3L256.6 375L256.8 301.6H236.7Z" fill="#3D9096"/>
<path d="M383.9 457.9L333.3 451.8C333.2 451.8 333.1 451.7 333.1 451.6C333.1 451.5 333.1 451.4 333.2 451.4L383.4 420.8C383.5 420.8 383.5 420.8 383.6 420.8C383.7 420.8 383.7 420.9 383.7 421L384.1 457.7C384.1 457.8 384.1 457.8 384 457.9H383.9ZM333.9 451.5L383.7 457.5L383.4 421.4L333.9 451.5Z" fill="#3D9096"/>
<path d="M411.8 455.1C411.7 455.1 411.7 455.1 411.6 455L383.3 421.2V421.1V345C383.3 344.9 383.4 344.8 383.5 344.8C383.6 344.8 383.7 344.9 383.7 344.9L412 454.9C412 454.9 412 455 411.8 455.1C411.9 455 411.8 455.1 411.8 455.1ZM383.7 420.9L411.3 454L383.6 346.4L383.7 420.9Z" fill="#3D9096"/>
<path d="M207 453.6H206.9C206.8 453.6 206.8 453.5 206.8 453.4L226.5 352.5C226.5 352.4 226.6 352.3 226.7 352.3C226.8 352.3 226.9 352.3 226.9 352.4L257.1 436.3C257.1 436.4 257.1 436.4 257.1 436.5L257 436.6L207 453.6ZM226.7 353.2L207.3 453.1L256.6 436.2L226.7 353.2Z" fill="#3D9096"/>
<path d="M431.7 103.3C431.7 105.4 433.2 107.2 435.1 107.2C437 107.2 438.5 105.5 438.5 103.3C438.5 101.2 437 99.4 435.1 99.4C433.2 99.4 431.7 101.1 431.7 103.3Z" fill="#3D9096"/>
<path d="M457.7 71C457.7 73.1 459.2 74.9 461.1 74.9C463 74.9 464.5 73.2 464.5 71C464.5 68.9 463 67.1 461.1 67.1C459.2 67.2 457.7 68.9 457.7 71Z" fill="#3D9096"/>
<path d="M456.4 55.8C456.4 59.2 458.8 62 461.8 62C464.8 62 467.2 59.2 467.2 55.8C467.2 52.4 464.8 49.6 461.8 49.6C458.8 49.6 456.4 52.4 456.4 55.8Z" fill="#3D9096"/>
<path d="M456.4 445.8C456.4 449.2 458.8 452 461.8 452C464.8 452 467.2 449.2 467.2 445.8C467.2 442.4 464.8 439.6 461.8 439.6C458.8 439.6 456.4 442.4 456.4 445.8Z" fill="#3D9096"/>
<path d="M327.4 56.8C327.4 60.2 329.8 63 332.8 63C335.8 63 338.2 60.2 338.2 56.8C338.2 53.4 335.8 50.6 332.8 50.6C329.8 50.6 327.4 53.4 327.4 56.8Z" fill="#3D9096"/>
<path d="M377.9 457C377.9 460.5 380.7 463.4 384.2 463.4C387.7 463.4 390.5 460.5 390.5 457C390.5 453.5 387.7 450.6 384.2 450.6C380.7 450.6 377.9 453.5 377.9 457Z" fill="#3D9096"/>
<path d="M250.9 194C250.9 197.5 253.7 200.4 257.2 200.4C260.7 200.4 263.5 197.5 263.5 194C263.5 190.5 260.7 187.6 257.2 187.6C253.7 187.6 250.9 190.5 250.9 194Z" fill="#3D9096"/>
<path d="M250.9 471C250.9 474.5 253.7 477.4 257.2 477.4C260.7 477.4 263.5 474.5 263.5 471C263.5 467.5 260.7 464.6 257.2 464.6C253.7 464.6 250.9 467.5 250.9 471Z" fill="#3D9096"/>
<path d="M417.9 340.4C417.9 341.8 419 343 420.5 343C421.9 343 423.1 341.8 423.1 340.4C423.1 339 422 337.8 420.5 337.8C419.1 337.8 417.9 339 417.9 340.4Z" fill="#3D9096"/>
<path d="M426.5 412.5C426.5 413.9 427.6 415.1 429.1 415.1C430.5 415.1 431.7 413.9 431.7 412.5C431.7 411.1 430.6 409.9 429.1 409.9C427.7 409.8 426.5 411 426.5 412.5Z" fill="#3D9096"/>
<path d="M254.5 436.3C254.5 437.7 255.6 438.9 257.1 438.9C258.5 438.9 259.7 437.7 259.7 436.3C259.7 434.9 258.6 433.7 257.1 433.7C255.7 433.7 254.5 434.9 254.5 436.3Z" fill="#3D9096"/>
<path d="M458.5 446.8C458.5 448.2 459.6 449.4 461.1 449.4C462.5 449.4 463.7 448.2 463.7 446.8C463.7 445.4 462.6 444.2 461.1 444.2C459.6 444.2 458.5 445.3 458.5 446.8Z" fill="#3D9096"/>
<path d="M381.3 457.5C381.3 458.9 382.4 460.1 383.9 460.1C385.3 460.1 386.5 458.9 386.5 457.5C386.5 456.1 385.4 454.9 383.9 454.9C382.5 454.9 381.3 456 381.3 457.5Z" fill="#3D9096"/>
<path d="M351 346C351 347.4 352.1 348.6 353.6 348.6C355 348.6 356.2 347.4 356.2 346C356.2 344.6 355.1 343.4 353.6 343.4C352.1 343.4 351 344.6 351 346Z" fill="#3D9096"/>
<path d="M358.6 305.4C358.6 306.8 359.7 308 361.2 308C362.6 308 363.8 306.8 363.8 305.4C363.8 304 362.7 302.8 361.2 302.8C359.8 302.8 358.6 303.9 358.6 305.4Z" fill="#3D9096"/>
<path d="M440.9 209C440.9 210.4 442 211.6 443.5 211.6C444.9 211.6 446.1 210.4 446.1 209C446.1 207.6 445 206.4 443.5 206.4C442 206.3 440.9 207.5 440.9 209Z" fill="#3D9096"/>
<path d="M342.6 250.7C342.6 252.1 343.7 253.3 345.2 253.3C346.6 253.3 347.8 252.1 347.8 250.7C347.8 249.3 346.7 248.1 345.2 248.1C343.7 248.1 342.6 249.3 342.6 250.7Z" fill="#3D9096"/>
<path d="M358.8 109.4C358.8 110.8 359.9 112 361.4 112C362.8 112 364 110.8 364 109.4C364 108 362.9 106.8 361.4 106.8C359.9 106.8 358.8 108 358.8 109.4Z" fill="#3D9096"/>
<path d="M330.8 143.1C330.8 144.5 331.9 145.7 333.4 145.7C334.8 145.7 336 144.5 336 143.1C336 141.7 334.9 140.5 333.4 140.5C331.9 140.4 330.8 141.6 330.8 143.1Z" fill="#3D9096"/>
<path d="M331.1 212.3C331.1 213.7 332.2 214.9 333.7 214.9C335.1 214.9 336.3 213.7 336.3 212.3C336.3 210.9 335.2 209.7 333.7 209.7C332.3 209.7 331.1 210.9 331.1 212.3Z" fill="#3D9096"/>
<path d="M297.8 232.7C297.8 234.1 298.9 235.3 300.4 235.3C301.8 235.3 303 234.1 303 232.7C303 231.3 301.9 230.1 300.4 230.1C298.9 230.1 297.8 231.3 297.8 232.7Z" fill="#3D9096"/>
<path d="M224.1 352.5C224.1 353.9 225.2 355.1 226.7 355.1C228.1 355.1 229.3 353.9 229.3 352.5C229.3 351.1 228.2 349.9 226.7 349.9C225.2 349.8 224.1 351 224.1 352.5Z" fill="#3D9096"/>
<path d="M240.2 397.6C240.2 399 241.3 400.2 242.8 400.2C244.2 400.2 245.4 399 245.4 397.6C245.4 396.2 244.3 395 242.8 395C241.4 395 240.2 396.2 240.2 397.6Z" fill="#3D9096"/>
<path d="M204.5 336.8C204.5 338.2 205.6 339.4 207.1 339.4C208.5 339.4 209.7 338.2 209.7 336.8C209.7 335.4 208.6 334.2 207.1 334.2C205.6 334.2 204.5 335.4 204.5 336.8Z" fill="#3D9096"/>
<path d="M269.6 277.6C269.6 279 270.7 280.2 272.2 280.2C273.6 280.2 274.8 279 274.8 277.6C274.8 276.2 273.7 275 272.2 275C270.7 275 269.6 276.1 269.6 277.6Z" fill="#3D9096"/>
<path d="M232 202.3C232 203.7 233.1 204.9 234.6 204.9C236 204.9 237.2 203.7 237.2 202.3C237.2 200.9 236.1 199.7 234.6 199.7C233.1 199.7 232 200.9 232 202.3Z" fill="#3D9096"/>
<path d="M318 346.2C318 347.6 319.1 348.8 320.6 348.8C322 348.8 323.2 347.6 323.2 346.2C323.2 344.8 322.1 343.6 320.6 343.6C319.1 343.6 318 344.8 318 346.2Z" fill="#3D9096"/>
<path d="M222.7 267.7C222.7 269.1 223.8 270.3 225.3 270.3C226.7 270.3 227.9 269.1 227.9 267.7C227.9 266.3 226.8 265.1 225.3 265.1C223.8 265.1 222.7 266.3 222.7 267.7Z" fill="#3D9096"/>
<path d="M362.6 176C362.6 177.4 363.7 178.6 365.2 178.6C366.6 178.6 367.8 177.4 367.8 176C367.8 174.6 366.7 173.4 365.2 173.4C363.7 173.4 362.6 174.6 362.6 176Z" fill="#3D9096"/>
<path d="M256.7 474.2C256.6 474.2 256.4 474.2 256.3 474.1L206.3 459.1C205.5 458.9 205.1 458 205.3 457.3C205.4 457.1 205.5 456.9 205.6 456.7V212.2C205.6 211.6 206 211 206.6 210.8L256.8 192.3C257.1 192.2 257.4 192.2 257.7 192.2L334.8 210.7C335.5 210.9 335.9 211.5 335.9 212.1V462.1C335.9 462.8 335.4 463.5 334.6 463.6L256.9 474.2C256.8 474.1 256.7 474.2 256.7 474.2ZM208.5 456.7L256.7 471.2L332.8 460.9V213.3L257.3 195.2L208.5 213.2V456.7Z" fill="#3D9096"/>
<path d="M256.9 474.3C256.1 474.3 255.4 473.6 255.4 472.8L255.8 193.6C255.8 192.8 256.5 192.1 257.3 192.1C258.1 192.1 258.8 192.8 258.8 193.6L258.4 472.8C258.4 473.7 257.7 474.3 256.9 474.3Z" fill="#3D9096"/>
<path d="M206.3 456.3C205.5 456.3 204.8 455.6 204.8 454.8V213.7C204.8 212.9 205.5 212.2 206.3 212.2C207.1 212.2 207.8 212.9 207.8 213.7V454.9C207.8 455.7 207.2 456.3 206.3 456.3Z" fill="#3D9096"/>
<path d="M383.7 459.2C383.6 459.2 383.6 459.2 383.5 459.2L334.5 454.1C333.7 454 333.2 453.4 333.2 452.6L332.2 55.5C332.2 54.9 332.6 54.3 333.2 54.1L383.4 35.6C383.7 35.5 384 35.5 384.3 35.5L461.4 54C462.1 54.2 462.5 54.8 462.5 55.4V446.5C462.5 447.2 462 447.9 461.2 448L383.8 459.1C383.8 459.2 383.7 459.2 383.7 459.2ZM336.1 451.3L383.6 456.2L459.5 445.4V56.7L384 38.6L335.2 56.6L336.1 451.3Z" fill="#3D9096"/>
<path d="M383.4 37.3L383.7 56.7L490.5 27.6V4.60001L383.4 37.3Z" fill="white"/>
<path d="M383.9 459.2C383.1 459.2 382.4 458.5 382.4 457.7V36.6C382.4 35.8 383.1 35.1 383.9 35.1C384.7 35.1 385.4 35.8 385.4 36.6V457.7C385.4 458.5 384.7 459.2 383.9 459.2Z" fill="#3D9096"/>
<path d="M327.4 211.8C327.4 215.2 329.8 218 332.8 218C335.8 218 338.2 215.2 338.2 211.8C338.2 208.4 335.8 205.6 332.8 205.6C329.8 205.6 327.4 208.4 327.4 211.8Z" fill="#3D9096"/>
<path d="M328.4 461.8C328.4 465.2 330.8 468 333.8 468C336.8 468 339.2 465.2 339.2 461.8C339.2 458.4 336.8 455.6 333.8 455.6C330.8 455.6 328.4 458.4 328.4 461.8Z" fill="#3D9096"/>
<path d="M201.4 212.8C201.4 216.2 203.8 219 206.8 219C209.8 219 212.2 216.2 212.2 212.8C212.2 209.4 209.8 206.6 206.8 206.6C203.8 206.6 201.4 209.4 201.4 212.8Z" fill="#3D9096"/>
<path d="M201.8 455.8C201.8 458.9 204 461.5 206.8 461.5C209.6 461.5 211.8 459 211.8 455.8C211.8 452.7 209.6 450.1 206.8 450.1C204 450.1 201.8 452.7 201.8 455.8Z" fill="#3D9096"/>
<g opacity="0.2">
<path opacity="0.2" d="M383.4 37.3L383.7 56.7L490.5 27.6V4.60001L383.4 37.3Z" fill="#3D9096"/>
</g>
<path d="M461 70.8L547.7 48.7L490.5 27.6L383.7 56.7L461 70.8Z" fill="white"/>
<g opacity="0.4">
<path opacity="0.4" d="M461 70.8L547.7 48.7L490.5 27.6L383.7 56.7L461 70.8Z" fill="#3D9096"/>
</g>
<path d="M490.5 4.60001V27.6L547.7 48.7V31.2L490.5 4.60001Z" fill="white"/>
<g opacity="0.1">
<path opacity="0.1" d="M490.5 4.60001V27.6L547.7 48.7V31.2L490.5 4.60001Z" fill="#3D9096"/>
</g>
<path d="M543.8 31.3C543.8 34 545.7 36.1 548 36.1C550.3 36.1 552.2 33.9 552.2 31.3C552.2 28.6 550.3 26.5 548 26.5C545.7 26.5 543.8 28.7 543.8 31.3Z" fill="#3D9096"/>
<path d="M543.3 47.8C543.3 50.5 545.2 52.6 547.5 52.6C549.8 52.6 551.7 50.4 551.7 47.8C551.7 45.1 549.8 43 547.5 43C545.2 42.9 543.3 45.1 543.3 47.8Z" fill="#3D9096"/>
<path d="M485 5.7C485 8.8 487.2 11.4 490 11.4C492.7 11.4 495 8.9 495 5.7C495 2.6 492.8 0 490 0C487.3 0 485 2.5 485 5.7Z" fill="#3D9096"/>
<path d="M485 27.8C485 30.9 487.2 33.5 490 33.5C492.7 33.5 495 31 495 27.8C495 24.7 492.8 22.1 490 22.1C487.3 22.1 485 24.6 485 27.8Z" fill="#3D9096"/>
<path d="M490.2 29.2C489.4 29.2 488.7 28.5 488.7 27.7V4.70001C488.7 3.90001 489.4 3.20001 490.2 3.20001C491 3.20001 491.7 3.90001 491.7 4.70001V27.7C491.6 28.5 491 29.2 490.2 29.2Z" fill="#3D9096"/>
<path d="M547.7 50.2C546.9 50.2 546.2 49.5 546.2 48.7V31.2C546.2 30.4 546.9 29.7 547.7 29.7C548.5 29.7 549.2 30.4 549.2 31.2V48.7C549.1 49.5 548.5 50.2 547.7 50.2Z" fill="#3D9096"/>
<path d="M379.5 56.4C379.5 59 381.4 61.2 383.7 61.2C386 61.2 387.9 59.1 387.9 56.4C387.9 53.8 386 51.6 383.7 51.6C381.4 51.6 379.5 53.8 379.5 56.4Z" fill="#3D9096"/>
<path d="M379.5 37.6C379.5 40.2 381.4 42.4 383.7 42.4C386 42.4 387.9 40.3 387.9 37.6C387.9 35 386 32.8 383.7 32.8C381.4 32.9 379.5 35 379.5 37.6Z" fill="#3D9096"/>
<path d="M382.6 39.7C382 39.7 381.4 39.3 381.2 38.7C381 37.9 381.4 37.1 382.2 36.8L490.1 3.19999C490.5 3.09999 490.8 3.09999 491.2 3.29999L548.3 29.9C549 30.2 549.4 31.1 549 31.9C548.7 32.6 547.8 33 547 32.6L490.4 6.19999L383.1 39.6C382.9 39.6 382.8 39.7 382.6 39.7Z" fill="#3D9096"/>
<path d="M460.7 72.2L383.4 58.1L383.3 55.2L490.2 26.1H491.1L548.2 47.2L548.1 50L461.4 72.1L460.7 72.2ZM390.4 56.4L461 69.3L542.7 48.5L490.5 29.2L390.4 56.4Z" fill="#3D9096"/>
<path d="M454.3 68.7H454.2C454.1 68.6 454.1 68.5 454.1 68.4L479 31.2C479.1 31.1 479.2 31.1 479.3 31.1C479.4 31.2 479.4 31.3 479.4 31.4L454.6 68.6C454.4 68.7 454.4 68.7 454.3 68.7Z" fill="#3D9096"/>
<path d="M438.4 66.4C438.3 66.4 438.3 66.4 438.2 66.3C438.1 66.2 438.2 66.1 438.3 66L470 45.1H470.1L533.9 51.6C534 51.6 534.1 51.7 534.1 51.8C534.1 51.9 534 52 533.9 52L470.1 45.5L438.5 66.3C438.5 66.4 438.4 66.4 438.4 66.4Z" fill="#3D9096"/>
<path d="M426.7 64.8C426.6 64.8 426.5 64.7 426.5 64.6L431.3 44.5L405.9 60.7C405.8 60.8 405.7 60.7 405.6 60.6C405.5 60.5 405.6 60.4 405.7 60.3L431.5 43.8C431.6 43.8 431.7 43.8 431.7 43.8C431.8 43.8 431.8 43.9 431.8 44L426.9 64.5C426.9 64.7 426.8 64.8 426.7 64.8Z" fill="#3D9096"/>
<path d="M431.5 43.9L383.3 37.4C383.2 37.4 383.1 37.3 383.1 37.2C383.1 37.1 383.2 37 383.3 37L431.4 43.4L490 6.8C490.1 6.7 490.2 6.8 490.3 6.9C490.4 7 490.3 7.1 490.2 7.2L431.6 44C431.6 43.9 431.6 43.9 431.5 43.9Z" fill="#3D9096"/>
<path d="M712.2 237.7C712.2 238.6 711.5 239.4 710.7 239.4C709.9 239.4 709.2 238.7 709.2 237.7C709.2 236.8 709.9 236 710.7 236C711.6 236 712.2 236.8 712.2 237.7Z" fill="#3D9096"/>
<path d="M732.1 232.7L732 238L713.9 226.6V220.3L732.1 232.7Z" fill="white"/>
<g opacity="0.2">
<path opacity="0.2" d="M732.1 232.7L732 238L713.9 226.6V220.3L732.1 232.7Z" fill="#3D9096"/>
</g>
<path d="M712 241.8L698.4 232.8L713.9 226.6L732 238L712 241.8Z" fill="white"/>
<g opacity="0.4">
<path opacity="0.4" d="M712 241.8L698.4 232.8L713.9 226.6L732 238L712 241.8Z" fill="#3D9096"/>
</g>
<path d="M713.9 220.3V226.6L698.4 232.8V228L713.9 220.3Z" fill="white"/>
<g opacity="0.1">
<path opacity="0.1" d="M713.9 220.3V226.6L698.4 232.8V228L713.9 220.3Z" fill="#3D9096"/>
</g>
<path d="M699.5 228.1C699.5 228.8 699 229.4 698.3 229.4C697.6 229.4 697.1 228.8 697.1 228.1C697.1 227.4 697.6 226.8 698.3 226.8C699 226.8 699.5 227.3 699.5 228.1Z" fill="#3D9096"/>
<path d="M699.6 232.5C699.6 233.2 699.1 233.8 698.4 233.8C697.8 233.8 697.2 233.2 697.2 232.5C697.2 231.8 697.7 231.2 698.4 231.2C699.1 231.2 699.6 231.8 699.6 232.5Z" fill="#3D9096"/>
<path d="M715.4 220.6C715.4 221.5 714.8 222.1 714 222.1C713.2 222.1 712.6 221.4 712.6 220.6C712.6 219.7 713.2 219.1 714 219.1C714.8 219.1 715.4 219.7 715.4 220.6Z" fill="#3D9096"/>
<path d="M715.4 226.6C715.4 227.5 714.8 228.1 714 228.1C713.2 228.1 712.6 227.4 712.6 226.6C712.6 225.7 713.2 225.1 714 225.1C714.8 225.1 715.4 225.7 715.4 226.6Z" fill="#3D9096"/>
<path d="M714 227C713.8 227 713.6 226.8 713.6 226.6V220.4C713.6 220.2 713.8 220 714 220C714.2 220 714.4 220.2 714.4 220.4V226.6C714.5 226.8 714.3 227 714 227Z" fill="#3D9096"/>
<path d="M698.4 233.2C698.2 233.2 698 233 698 232.8V228C698 227.8 698.2 227.6 698.4 227.6C698.6 227.6 698.8 227.8 698.8 228V232.8C698.8 233 698.7 233.2 698.4 233.2Z" fill="#3D9096"/>
<path d="M732.3 233.3C732.2 233.3 732.1 233.3 732.1 233.2L714 220.7L698.7 228.3C698.5 228.4 698.3 228.3 698.2 228.1C698.1 227.9 698.2 227.7 698.4 227.6L713.9 219.9C714 219.8 714.2 219.8 714.3 219.9L732.6 232.5C732.8 232.6 732.8 232.9 732.7 233.1C732.5 233.3 732.4 233.3 732.3 233.3Z" fill="#3D9096"/>
<path d="M712 242.2L711.7 242.1L698.2 233.1L698.3 232.4L713.8 226.2H714.2L732.2 237.6L732.1 238.3L712 242.2ZM699.3 232.9L712.1 241.4L730.9 237.8L713.9 227.1L699.3 232.9Z" fill="#3D9096"/>
<path d="M712.8 241.2C712.8 241.2 712.7 241.2 712.8 241.2L711.7 227.8V227.7C711.7 227.7 711.7 227.7 711.8 227.7L712.8 241.2Z" fill="#3D9096"/>
<path d="M727.8 238.8L722.2 231.8V231.7H722.3L727.8 238.8C727.9 238.7 727.9 238.8 727.8 238.8Z" fill="#3D9096"/>
<path d="M732.1 232.7L722.2 231.8L714 221V220.9H714.1L722.2 231.7L732 232.6C732.1 232.6 732.1 232.7 732.1 232.7Z" fill="#3D9096"/>
<path d="M732 238.4C731.8 238.4 731.6 238.2 731.6 238L731.9 233C731.9 232.8 732.1 232.6 732.3 232.6C732.5 232.6 732.7 232.8 732.7 233L732.4 238C732.4 238.2 732.2 238.4 732 238.4Z" fill="#3D9096"/>
<path d="M699.7 248.5C699.4 248.5 699.1 248.2 699.1 247.9V241.5C699.1 241.2 699.4 240.9 699.7 240.9C700 240.9 700.3 241.2 700.3 241.5V247.9C700.3 248.2 700.1 248.5 699.7 248.5Z" fill="#3D9096"/>
<path d="M699.7 279.8C699.4 279.8 699.1 279.5 699.1 279.2V269.1C699.1 268.8 699.4 268.5 699.7 268.5C700 268.5 700.3 268.8 700.3 269.1V279.2C700.3 279.5 700.1 279.8 699.7 279.8Z" fill="#3D9096"/>
<path d="M648.6 384.6C646.2 377.3 647.3 370.5 651.7 366C655.5 362.1 660.9 360.7 666 362.1L665.7 363.2C661 361.8 656 363.2 652.5 366.7C648.5 370.9 647.4 377.2 649.7 384.1L648.6 384.6Z" fill="#D5ECEE"/>
<path d="M663.4 394.7C659.3 388.9 662.4 382.3 666.9 378.6C671.9 374.6 679.9 373.1 685.8 379.4L685 380.2C679.6 374.4 672.4 375.7 667.7 379.5C663.6 382.9 660.7 388.8 664.4 394L663.4 394.7Z" fill="#3D9096"/>
<path d="M677 391.8L676.2 391C679.9 387.1 683.5 385.2 690.6 388.2L690.2 389.3C683.6 386.6 680.4 388.2 677 391.8Z" fill="#3D9096"/>
<path d="M680.6 376.3L679.7 375.6C684.2 369.3 690.4 365.8 697.6 365.5V366.7C690.7 367 684.9 370.3 680.6 376.3Z" fill="#3D9096"/>
<path d="M706.1 392.8L705.1 392.3C707 388.7 711.3 385.8 716 385.2C719.8 384.7 723.1 385.8 725.3 388.2L724.4 389C722.5 386.8 719.5 385.9 716.1 386.4C711.8 386.9 707.8 389.5 706.1 392.8Z" fill="#3D9096"/>
<path d="M692.4 354.8H691.2V367.1H692.4V354.8Z" fill="#3D9096"/>
<path d="M708.3 354.8H707.1V367.5H708.3V354.8Z" fill="#3D9096"/>
<path d="M696.8 349.7H683.8V290.9L696.2 270.5V255.5" fill="white"/>
<path d="M696.8 350.3H683.8C683.5 350.3 683.2 350 683.2 349.7V290.9C683.2 290.8 683.2 290.7 683.3 290.6L695.6 270.3V255.5H696.8V270.5C696.8 270.6 696.8 270.7 696.7 270.8L684.4 291.1V349.2H696.8V350.3Z" fill="#3D9096"/>
<path d="M715.8 325L729.6 375.2L713 354.6" fill="white"/>
<path d="M729.6 375.8C729.4 375.8 729.3 375.7 729.1 375.6L712.5 355L713.4 354.3L728.2 372.7L715.2 325.1L716.3 324.8L730.1 375C730.2 375.3 730 375.5 729.8 375.7C729.7 375.8 729.6 375.8 729.6 375.8Z" fill="#3D9096"/>
<path d="M750.3 389.1C750 381.5 743.7 369.9 734.3 370.2C727.7 370.4 721.9 373.6 719 375.6C713.5 368.2 705.8 365.9 702.7 366.4C706.5 376.1 699.2 377.8 699.2 377.8L750.3 389.1Z" fill="white"/>
<path d="M748.4 390.1L747.3 389.6C748.6 386.8 748.2 379.2 742.9 374.9C739.9 372.5 734.9 369.9 728.3 371.3L728.1 370.2C735.2 368.7 740.5 371.5 743.7 374.1C749.5 378.8 749.9 386.9 748.4 390.1Z" fill="#3D9096"/>
<path d="M715 381.4L714 381C715.7 376.9 721.1 371.8 728.1 370.2L728.4 371.3C721.7 372.8 716.6 377.5 715 381.4Z" fill="#3D9096"/>
<path d="M718.3 375.9C714.9 370.4 709.3 367.3 701.2 366.5L701.3 365.3C709.6 366.2 715.6 369.6 719.2 375.3L718.3 375.9Z" fill="#3D9096"/>
<path d="M702.7 349.7H715.7V290.9L703.3 270.5V255.5" fill="white"/>
<path d="M715.7 350.3H702.7V349.1H715.1V291L702.8 270.7C702.7 270.6 702.7 270.5 702.7 270.4V255.4H703.9V270.2L716.2 290.5C716.3 290.6 716.3 290.7 716.3 290.8V349.6C716.3 350 716 350.3 715.7 350.3Z" fill="#3D9096"/>
<path d="M703.3 255.5V251C702.2 249.8 701 248.8 699.8 247.8C698.6 248.8 697.4 249.8 696.3 251V255.5H703.3Z" fill="white"/>
<path d="M703.9 256.1H695.7V250.8L695.9 250.6C697.1 249.4 698.3 248.3 699.5 247.4L699.9 247.1L700.3 247.4C701.5 248.4 702.7 249.4 703.9 250.6L704.1 250.8V256.1H703.9ZM696.8 254.9H702.7V251.3C701.7 250.3 700.8 249.4 699.7 248.6C698.7 249.4 697.7 250.3 696.7 251.3V254.9H696.8Z" fill="#3D9096"/>
<path d="M699.7 284.1L704 286.6V291.5L699.7 294L695.4 291.5V286.6L699.7 284.1ZM699.7 282.8L699.1 283.1L694.8 285.6L694.2 285.9V286.6V291.5V292.2L694.8 292.5L699.1 295L699.7 295.3L700.3 295L704.6 292.5L705.2 292.2V291.5V286.6V285.9L704.6 285.6L700.3 283.1L699.7 282.8Z" fill="#3D9096"/>
<path d="M699.7 305.3L704 307.8V312.7L699.7 315.2L695.4 312.7V307.8L699.7 305.3ZM699.7 303.9L699.1 304.2L694.8 306.7L694.2 307V307.7V312.6V313.3L694.8 313.6L699.1 316.1L699.7 316.4L700.3 316.1L704.6 313.6L705.2 313.3V312.6V307.7V307L704.6 306.7L700.3 304.2L699.7 303.9Z" fill="#3D9096"/>
<path d="M693.7 294.7L698 297.2V302.1L693.7 304.6L689.4 302.1V297.2L693.7 294.7ZM693.7 293.4L693.1 293.7L688.8 296.2L688.2 296.5V297.2V302.1V302.8L688.8 303.1L693.1 305.6L693.7 305.9L694.3 305.6L698.6 303.1L699.2 302.8V302.1V297.2V296.5L698.6 296.2L694.3 293.7L693.7 293.4Z" fill="#3D9096"/>
<path d="M705.8 294.7L710.1 297.2V302.1L705.8 304.6L701.5 302.1V297.2L705.8 294.7ZM705.8 293.4L705.2 293.7L700.9 296.2L700.3 296.5V297.2V302.1V302.8L700.9 303.1L705.2 305.6L705.8 305.9L706.4 305.6L710.7 303.1L711.3 302.8V302.1V297.2V296.5L710.7 296.2L706.4 293.7L705.8 293.4Z" fill="#3D9096"/>
<path d="M689.7 306.5L691.9 307.8V310.3L689.7 311.6L687.5 310.3V307.8L689.7 306.5ZM689.7 305.2L689.1 305.5L686.9 306.8L686.3 307.1V307.8V310.3V311L686.9 311.3L689.1 312.6L689.7 312.9L690.3 312.6L692.5 311.3L693.1 311V310.3V307.8V307.1L692.5 306.8L690.3 305.5L689.7 305.2Z" fill="#3D9096"/>
<path d="M709.8 306.5L712 307.8V310.3L709.8 311.6L707.6 310.3V307.8L709.8 306.5ZM709.8 305.2L709.2 305.5L707 306.8L706.4 307.1V307.8V310.3V311L707 311.3L709.2 312.6L709.8 312.9L710.4 312.6L712.6 311.3L713.2 311V310.3V307.8V307.1L712.6 306.8L710.4 305.5L709.8 305.2Z" fill="#3D9096"/>
<path d="M669.9 375.8C669.8 375.8 669.7 375.8 669.6 375.7C669.4 375.6 669.2 375.3 669.3 375L683.1 324.8L684.2 325.1L671.2 372.7L686 354.3L686.9 355L670.3 375.6C670.3 375.7 670.1 375.8 669.9 375.8Z" fill="#3D9096"/>
<path d="M698.2 349.7H683.8L686.5 354.6H698.2" fill="white"/>
<path d="M698.2 355.2H686.5C686.3 355.2 686.1 355.1 686 354.9L683.3 350C683.2 349.8 683.2 349.6 683.3 349.4C683.4 349.2 683.6 349.1 683.8 349.1H698.2V350.3H684.7L686.8 354.1H698.2V355.2Z" fill="#3D9096"/>
<path d="M701.2 349.7H715.7L713 354.6H701.2" fill="white"/>
<path d="M713 355.2H701.2V354H712.6L714.7 350.2H701.2V349H715.7C715.9 349 716.1 349.1 716.2 349.3C716.3 349.5 716.3 349.7 716.2 349.9L713.5 354.8C713.4 355.1 713.2 355.2 713 355.2Z" fill="#3D9096"/>
<path d="M701.5 377.6H698C697.8 377.6 697.7 377.5 697.6 377.4C697.5 377.3 697.4 377.1 697.4 377L697.9 321.8C697.9 321.5 698.2 321.2 698.5 321.2H700.9C701.2 321.2 701.5 321.5 701.5 321.8L702 377C702 377.2 701.9 377.3 701.8 377.4C701.8 377.6 701.6 377.6 701.5 377.6ZM698.6 376.5H700.9L700.4 322.5H699.2L698.6 376.5Z" fill="#3D9096"/>
<g opacity="0.6">
<path opacity="0.6" d="M840.4 218.8H628.5V401.5H840.4V218.8Z" fill="white"/>
</g>
<g opacity="0.5">
<path opacity="0.5" d="M944.8 355.8H824.5V357.3H944.8V355.8Z" fill="#D5ECEE"/>
</g>
<path d="M648.2 307.7L694.8 387L677 425.9L627.1 381.4" fill="white"/>
<path d="M677.5 428.6L626 382.6L628.2 380.2L676.4 423.2L693 387L646.8 308.5L649.6 306.9L696.6 386.9L677.5 428.6Z" fill="#3D9096"/>
<path d="M584.6 381.8H557C515.7 284.4 534.6 157.8 592.9 112.4C651.2 157.8 670.1 284.3 628.8 381.8H601.4" fill="white"/>
<path d="M629.8 383.5H601.3V380.2H627.6C646.7 334.6 653.6 279.2 646.5 227.9C639.5 177.6 620 136.4 592.8 114.6C565.6 136.4 546.1 177.6 539.1 227.9C532 279.2 538.9 334.6 558 380.2H584.6V383.5H555.9L555.5 382.5C535.9 336.2 528.8 279.7 536 227.5C543.2 175.7 563.5 133.4 591.9 111.3L592.9 110.5L593.9 111.3C622.3 133.4 642.6 175.8 649.8 227.5C657 279.7 649.9 336.3 630.3 382.5L629.8 383.5Z" fill="#3D9096"/>
<path d="M602.4 411.9H583.3L582.4 385C582.4 384.8 581.9 366.1 582.6 346.5C583.9 306.4 588.4 301.8 589.9 300.2C591 299 592.2 298.8 592.9 298.8C593.6 298.8 594.8 299 595.9 300.2C597.4 301.7 601.9 306.3 603.2 346.5C603.8 366.1 603.4 384.8 603.4 385L602.4 411.9ZM586.5 408.7H599.2L600 384.9C600.7 355.3 599.6 308.8 593.5 302.6C593 302.1 592.7 302.1 592.1 302.6C590.2 304.5 586.9 312.9 585.8 346.7C585.2 366.2 585.6 384.8 585.6 385L586.5 408.7Z" fill="#3D9096"/>
<path d="M600.2 442.3H585.4L583.1 408.7H602.5L600.2 442.3ZM588.5 439H597.2L599.1 411.9H586.7L588.5 439Z" fill="#3D9096"/>
<path d="M651.5 326.6L687.6 386.8L683.8 395.8L651.5 333.2V326.6Z" fill="#D5ECEE"/>
<path d="M592.8 194.2L622.7 211.4V245.9L592.8 263.1L563 245.9V211.4L592.8 194.2ZM592.8 190.5L591.2 191.4L561.3 208.6L559.7 209.5V211.4V245.9V247.8L561.3 248.7L591.2 265.9L592.8 266.8L594.4 265.9L624.3 248.7L625.9 247.8V245.9V211.4V209.5L624.3 208.6L594.4 191.4L592.8 190.5Z" fill="#3D9096"/>
<path d="M584.1 206L587.3 218.6L568.2 229.7V215.2L584.1 206Z" fill="#D5ECEE"/>
<path d="M508.1 426.6L489 384.9L535.4 305.8L538.3 307.5L492.7 385.1L509.2 421.2L555.5 380.7L557.7 383.2L508.1 426.6Z" fill="#3D9096"/>
<path d="M534.1 324.6L498.2 384.1L502 393.1L534.1 331.2V324.6Z" fill="#D5ECEE"/>
<path d="M592.8 311.6C590.9 311.8 589.1 341.6 589.5 349.3C591.9 348.1 594.8 348.1 596.4 348.9C596.4 341.6 594.9 311.4 592.8 311.6Z" fill="#D5ECEE"/>
<path d="M499.9 407C471.9 398.8 438.5 424.5 452.9 468.2L499.9 407Z" fill="white"/>
<path d="M451.3 468.7C444.5 448.1 447.7 428.9 459.9 416.3C470.5 405.4 486 401.2 500.3 405.4L499.4 408.5C486.2 404.6 472 408.5 462.3 418.5C450.9 430.3 448 448.2 454.4 467.6L451.3 468.7Z" fill="#3D9096"/>
<path d="M521.9 426.7C519.9 423.3 517.5 420.3 514.8 417.7L517.1 415.4C519.9 418.2 522.5 421.4 524.7 425.1L521.9 426.7Z" fill="#3D9096"/>
<path d="M490.3 487.3C485.2 480 483.7 471.5 486.1 462.8C488.2 455 493.3 447.6 500.3 441.9C514.4 430.5 537.1 426.4 553.6 444.2L551.2 446.4C540.2 434.6 520.9 429.4 502.3 444.4C490.6 453.9 482.7 470.7 492.9 485.3L490.3 487.3Z" fill="#3D9096"/>
<path d="M528.5 479.2L526.1 477C536.4 465.9 546.8 460.7 566.7 469L565.4 472C547.3 464.4 538.1 468.9 528.5 479.2Z" fill="#3D9096"/>
<path d="M546.7 439.7L544 437.9C552 426 566.6 418.3 584.2 416.7L584.5 420C567.9 421.5 554.1 428.7 546.7 439.7Z" fill="#3D9096"/>
<path d="M730.2 474.2L727.2 472.8C730.8 464.8 729.7 443.6 714.7 431.4C705.3 423.8 693.5 420.1 680.7 420.8L680.5 417.5C694.1 416.8 706.6 420.7 716.7 428.9C733.3 442.3 734.3 465.1 730.2 474.2Z" fill="#3D9096"/>
<path d="M636 449.8L633 448.6C635.2 443.2 644.4 425.1 669.5 419.2L670.2 422.4C646.6 427.8 638 444.7 636 449.8Z" fill="#3D9096"/>
<path d="M707.2 478.1C705.4 470.1 699.5 463.7 690.5 460C679.3 455.4 665.8 456.2 656.9 461.9L655.1 459.2C664.8 452.9 679.5 452 691.7 457C701.7 461.1 708.4 468.4 710.4 477.5L707.2 478.1Z" fill="#3D9096"/>
<path d="M565 382H561.7V424.1H565V382Z" fill="#3D9096"/>
<path d="M624 382H620.7V424.9H624V382Z" fill="#3D9096"/>
<path d="M640.2 438.7C630.3 428.9 616.3 422.4 600.8 420.4L601.2 417.2C617.4 419.3 632 426.2 642.4 436.4L640.2 438.7Z" fill="#3D9096"/>
<path d="M588.5 123.6C576.8 136.6 563.4 156.9 557.9 174.8C567.2 164.8 573 163.8 581.9 159.7C583.5 145.7 588.5 123.6 588.5 123.6Z" fill="#D5ECEE"/>
</g>
</g>
<defs>
<clipPath id="clip0">
<rect width="967" height="487" fill="white"/>
</clipPath>
<clipPath id="clip1">
<rect width="982.6" height="487.3" fill="white"/>
</clipPath>
</defs>
</svg>
