<?xml version="1.0" encoding="utf-8"?>
<!-- Generator: Adobe Illustrator 24.0.1, SVG Export Plug-In . SVG Version: 6.00 Build 0)  -->
<svg version="1.1" id="Layer_1" xmlns="http://www.w3.org/2000/svg" xmlns:xlink="http://www.w3.org/1999/xlink" x="0px" y="0px"
	 viewBox="0 0 780.6 235.3" style="enable-background:new 0 0 780.6 235.3;" xml:space="preserve">
<style type="text/css">
	.st0{fill:#191919;}
	.st1{fill:#9AD4DB;}
	.st2{clip-path:url(#SVGID_2_);}
	.st3{clip-path:url(#SVGID_4_);fill:#131313;}
</style>
<path class="st0" d="M1.2,63H19v105H1.2V63z M36.8,63h36.3c7.9,0,14.5,0.9,19.6,2.6s9.2,4.1,12.1,7.1c2.9,2.8,5,6.3,6.2,10.2
	s1.8,8,1.8,12.1c0,4.4-0.6,8.7-1.8,12.9c-1.2,4-3.3,7.7-6.2,10.8c-3.4,3.3-7.6,5.8-12.1,7.3c-5.1,1.8-11.5,2.7-19.3,2.7H54.3V168
	H36.8V63z M73,114c3.7,0.1,7.5-0.3,11.1-1.3c2.5-0.7,4.9-1.9,6.8-3.7c1.6-1.6,2.9-3.6,3.5-5.8c0.7-2.5,1-5,1-7.6
	c0.1-2.6-0.3-5.2-1-7.7c-0.7-2.1-1.9-4-3.6-5.5c-2-1.6-4.4-2.8-6.9-3.4c-3.6-0.9-7.2-1.3-10.9-1.2H54.5V114H73z M192.9,63v15.3
	h-49.2V108H190v15.4h-46.3V168h-17.8V63H192.9z M219.1,135.9c0.8,6.9,3.3,11.9,7.4,15s10.4,4.7,18.6,4.7c3.4,0.1,6.8-0.3,10.1-1.3
	c2.4-0.8,4.6-1.9,6.6-3.5c1.6-1.4,2.8-3.2,3.5-5.2c0.7-2.1,1-4.2,1-6.4c0-1.7-0.2-3.3-0.7-4.9c-0.6-1.7-1.4-3.2-2.6-4.5
	c-1.5-1.5-3.2-2.7-5.1-3.6c-2.6-1.1-5.4-1.9-8.2-2.4l-13.4-2.5c-4.8-0.8-9.5-2.1-14.1-3.7c-3.8-1.3-7.3-3.3-10.4-5.8
	c-2.8-2.4-5-5.4-6.3-8.8c-1.5-4.1-2.2-8.4-2.1-12.7c-0.3-8.9,3.9-17.4,11.3-22.4c3.8-2.7,8.1-4.6,12.6-5.6
	c5.2-1.2,10.5-1.8,15.8-1.8c7.2,0,13.3,0.8,18.2,2.5c4.4,1.4,8.4,3.6,11.9,6.5c2.9,2.6,5.3,5.8,6.9,9.3s2.6,7.2,3.2,11l-16.8,2.6
	c-1.4-5.9-3.7-10.2-7.1-13.1s-8.7-4.3-16.1-4.3c-3.5-0.1-7.1,0.3-10.5,1.1c-2.4,0.6-4.8,1.6-6.8,3.1c-1.6,1.2-2.9,2.8-3.7,4.6
	c-0.7,1.7-1.1,3.5-1.1,5.4c0,4.6,1.2,8,3.7,10.3s6.9,4,13.2,5.3l14.5,2.8c11.1,2.1,19.2,5.6,24.4,10.5c5.2,4.9,7.8,12.1,7.8,21.4
	c0,4.2-0.8,8.4-2.4,12.3c-1.6,3.8-4.2,7.2-7.4,9.8c-3.7,3-7.9,5.2-12.4,6.6c-5.6,1.7-11.4,2.5-17.3,2.4c-13.4,0-24-2.8-31.6-8.5
	s-11.9-14.4-12.6-26.2L219.1,135.9z"/>
<g>
	<rect x="367.8" y="40.7" class="st1" width="4" height="155.4"/>
</g>
<g>
	<defs>
		<path id="SVGID_1_" d="M761.5,135.1c-4.2,0-7.3-2.1-7.3-5.8c0-3.6,2.5-5.5,7.9-5.9l9.6-0.7v3.4
			C771.7,131.2,767.4,135.1,761.5,135.1z M759.5,141.3c5.2,0,9.5-2.2,11.9-6.2h0.6v5.6h7.5v-26.9c0-8.3-5.6-13.2-15.5-13.2
			c-9,0-15.3,4.3-16.1,10.9h7.5c0.9-2.9,3.9-4.5,8.2-4.5c5.3,0,8.1,2.4,8.1,6.7v3.4l-10.7,0.7c-9.4,0.6-14.7,4.7-14.7,11.7
			C746.3,136.8,751.9,141.3,759.5,141.3z M735.2,140.9c1.5,0,3-0.2,4.2-0.4v-6.2c-1.1,0.1-1.8,0.2-3,0.2c-3.9,0-5.6-1.8-5.6-6.1
			v-20.8h8.6v-6.2h-8.6v-10h-7.8v10h-6.3v6.2h6.3v22.7C723.1,137.9,726.5,140.9,735.2,140.9z M703,117.5h-19.9
			c0.4-6.3,4.5-10.5,10.2-10.5C699.1,106.9,702.8,111.1,703,117.5z M693.4,141.5c9,0,15.4-4.3,17.1-11.3H703
			c-1.4,3.2-4.7,4.9-9.4,4.9c-6.2,0-10.3-4.5-10.5-11.6v-0.4H711v-2.7c0-12.3-6.6-19.8-17.6-19.8c-11.1,0-18.2,8-18.2,20.5
			C675.2,133.7,682.1,141.5,693.4,141.5z M649.2,134.7c-6.6,0-10.6-5.2-10.7-13.7c0-8.4,4.1-13.7,10.7-13.7
			c6.6,0,10.5,5.2,10.5,13.7C659.7,129.5,655.8,134.7,649.2,134.7z M651.4,141.3c10,0,16.3-7.9,16.3-20.3c0-12.5-6.3-20.4-16.3-20.4
			c-5.4,0-10,2.6-12.1,6.9h-0.6V85.9h-7.8v54.8h7.5v-6.2h0.6C641.3,138.8,645.9,141.3,651.4,141.3z M584.5,141.5
			c9.4,0,16.3-5,16.3-12.3c0-5.7-3.5-9-11-10.7l-6.6-1.5c-4.3-1-6.3-2.5-6.3-5c0-3.2,3.3-5.3,7.6-5.3c4.4,0,7.2,1.9,8,4.9h7.5
			c-0.8-6.8-6.6-10.9-15.4-10.9c-8.9,0-15.3,4.9-15.3,11.8c0,5.8,3.5,9.2,11,10.9l6.9,1.6c4,0.9,5.8,2.5,5.8,5
			c0,3.2-3.4,5.5-8.3,5.5c-4.7,0-7.6-1.9-8.6-5h-7.8C569,137.2,575.1,141.5,584.5,141.5z M544.5,141.5c9.7,0,15.8-5.5,16.9-13.2
			h-7.6c-1,4.3-4.4,6.6-9.3,6.6c-6.5,0-10.5-5.3-10.5-14c0-8.5,4-13.7,10.5-13.7c5.2,0,8.4,2.9,9.3,6.8h7.6c-1-7.6-7-13.4-16.9-13.4
			c-11.5,0-18.5,7.8-18.5,20.3C526,133.6,533,141.5,544.5,141.5z M500,134.8c-6.8,0-10.6-5-10.6-13.8c0-8.8,3.8-13.8,10.6-13.8
			c6.7,0,10.6,5.1,10.6,13.8C510.6,129.7,506.7,134.8,500,134.8z M500,141.5c11.5,0,18.6-7.7,18.6-20.4c0-12.7-7.1-20.4-18.6-20.4
			c-11.5,0-18.6,7.8-18.6,20.4C481.4,133.7,488.4,141.5,500,141.5z M447.7,133.7h-9.9V95.4h9.9c10.8,0,17.3,7.1,17.3,19.1
			C465,126.7,458.7,133.7,447.7,133.7z M448.6,140.7c15.6,0,24.6-9.6,24.6-26.3c0-16.5-9.1-26-24.6-26h-18.9v52.3H448.6z"/>
	</defs>
	<clipPath id="SVGID_2_">
		<use xlink:href="#SVGID_1_"  style="overflow:visible;"/>
	</clipPath>
	<g class="st2">
		<defs>
			<rect id="SVGID_3_" x="-546.4" y="-295.4" width="6494.7" height="3613.8"/>
		</defs>
		<clipPath id="SVGID_4_">
			<use xlink:href="#SVGID_3_"  style="overflow:visible;"/>
		</clipPath>
		<rect x="406.6" y="62.7" class="st3" width="396.1" height="102"/>
	</g>
</g>
</svg>
