<?xml version="1.0" encoding="utf-8"?>
<!-- Generator: Adobe Illustrator 23.1.1, SVG Export Plug-In . SVG Version: 6.00 Build 0)  -->
<svg version="1.1" id="Layer_1" xmlns="http://www.w3.org/2000/svg" xmlns:xlink="http://www.w3.org/1999/xlink" x="0px" y="0px"
	 viewBox="0 0 553 235.3" style="enable-background:new 0 0 553 235.3;" xml:space="preserve">
<style type="text/css">
	.st0{fill:#191919;}
	.st1{fill:#469EA2;}
	.st2{fill:#6ACAD1;}
	.st3{fill:#083B54;fill-opacity:0.15;}
	.st4{fill:#083B54;fill-opacity:5.000000e-02;}
</style>
<title>IPFS logo (new)</title>
<path class="st0" d="M239,63h17.8v105H239V63z M274.6,63h36.3c7.9,0,14.5,0.9,19.6,2.6s9.2,4.1,12.1,7.1c2.9,2.8,5,6.3,6.2,10.2
	c1.2,3.9,1.8,8,1.8,12.1c0,4.4-0.6,8.7-1.8,12.9c-1.2,4-3.3,7.7-6.2,10.8c-3.4,3.3-7.6,5.8-12.1,7.3c-5.1,1.8-11.5,2.7-19.3,2.7
	h-19.1V168h-17.5V63z M310.8,114c3.7,0.1,7.5-0.3,11.1-1.3c2.5-0.7,4.9-1.9,6.8-3.7c1.6-1.6,2.9-3.6,3.5-5.8c0.7-2.5,1-5,1-7.6
	c0.1-2.6-0.3-5.2-1-7.7c-0.7-2.1-1.9-4-3.6-5.5c-2-1.6-4.4-2.8-6.9-3.4c-3.6-0.9-7.2-1.3-10.9-1.2h-18.5V114H310.8z M430.7,63v15.3
	h-49.2V108h46.3v15.4h-46.3V168h-17.8V63H430.7z M456.9,135.9c0.8,6.9,3.3,11.9,7.4,15s10.4,4.7,18.6,4.7c3.4,0.1,6.8-0.3,10.1-1.3
	c2.4-0.8,4.6-1.9,6.6-3.5c1.6-1.4,2.8-3.2,3.5-5.2c0.7-2.1,1-4.2,1-6.4c0-1.7-0.2-3.3-0.7-4.9c-0.6-1.7-1.4-3.2-2.6-4.5
	c-1.5-1.5-3.2-2.7-5.1-3.6c-2.6-1.1-5.4-1.9-8.2-2.4l-13.4-2.5c-4.8-0.8-9.5-2.1-14.1-3.7c-3.8-1.3-7.3-3.3-10.4-5.8
	c-2.8-2.4-5-5.4-6.3-8.8c-1.5-4.1-2.2-8.4-2.1-12.7c-0.3-8.9,3.9-17.4,11.3-22.4c3.8-2.7,8.1-4.6,12.6-5.6
	c5.2-1.2,10.5-1.8,15.8-1.8c7.2,0,13.3,0.8,18.2,2.5c4.4,1.4,8.4,3.6,11.9,6.5c2.9,2.6,5.3,5.8,6.9,9.3c1.6,3.5,2.6,7.2,3.2,11
	l-16.8,2.6c-1.4-5.9-3.7-10.2-7.1-13.1s-8.7-4.3-16.1-4.3c-3.5-0.1-7.1,0.3-10.5,1.1c-2.4,0.6-4.8,1.6-6.8,3.1
	c-1.6,1.2-2.9,2.8-3.7,4.6c-0.7,1.7-1.1,3.5-1.1,5.4c0,4.6,1.2,8,3.7,10.3s6.9,4,13.2,5.3l14.5,2.8c11.1,2.1,19.2,5.6,24.4,10.5
	c5.2,4.9,7.8,12.1,7.8,21.4c0,4.2-0.8,8.4-2.4,12.3c-1.6,3.8-4.2,7.2-7.4,9.8c-3.7,3-7.9,5.2-12.4,6.6c-5.6,1.7-11.4,2.5-17.3,2.4
	c-13.4,0-24-2.8-31.6-8.5s-11.9-14.4-12.6-26.2L456.9,135.9L456.9,135.9z"/>
<path class="st1" d="M30.3,164l84,48.5l84-48.5V67l-84-48.5L30.3,67C30.3,67,30.3,164,30.3,164z"/>
<path class="st2" d="M105.7,30.1l-61,35.2c0.1,1.1,0.1,2.2,0,3.3l60.9,35.2c5.1-3.8,12.2-3.8,17.3,0l60.9-35.2
	c-0.1-1.1-0.1-2.2,0-3.3L123,30.1C117.9,33.9,110.8,33.9,105.7,30.1z M189.7,78.3l-61,35.6c0.7,6.3-2.8,12.4-8.6,15l0.1,70
	c1,0.4,1.9,1,2.8,1.6l60.9-35.2c-0.7-6.3,2.8-12.4,8.6-15V79.9C191.5,79.4,190.6,78.9,189.7,78.3z M38.9,78.7
	c-0.9,0.6-1.8,1.2-2.8,1.6v70.4c5.9,2.5,9.4,8.6,8.6,15l60.9,35.2c0.9-0.6,1.8-1.2,2.8-1.6v-70.4c-5.9-2.5-9.4-8.6-8.6-15
	C99.8,113.9,38.9,78.7,38.9,78.7z"/>
<path class="st1" d="M114.3,29l75.1,43.4v86.7l-75.1,43.4l-75.1-43.4V72.3L114.3,29 M114.3,18.7l-84,48.5v97l84,48.5l84-48.5v-97
	C198.3,67.2,114.3,18.7,114.3,18.7z"/>
<path class="st1" d="M114.9,132h-1.2c-8.6,0-15.7-7-15.7-15.6c0,0,0-0.1,0-0.1v-1.2c0-8.6,7-15.7,15.6-15.7c0,0,0.1,0,0.1,0h1.2
	c8.6,0,15.7,7,15.7,15.6c0,0,0,0.1,0,0.1v1.2C130.6,124.9,123.6,132,114.9,132C115,132,114.9,132,114.9,132z M114.9,196.5h-1.2
	c-5.7,0-10.9,3-13.7,8l14.3,8.2l14.3-8.2C125.8,199.5,120.6,196.5,114.9,196.5z M198.4,148h-0.6c-8.6,0-15.7,7-15.7,15.6
	c0,0,0,0.1,0,0.1v1.2c0,2.7,0.7,5.3,2,7.6l14.3-8.3V148z M184.1,59c-1.3,2.3-2,4.9-2,7.6v1.2c0,8.6,7,15.7,15.6,15.7
	c0,0,0.1,0,0.1,0h0.6V67.2L184.1,59L184.1,59z M114.3,18.7L100,26.9c2.8,5,8,8.1,13.7,8.1h1.2c5.7,0,10.9-3,13.7-8L114.3,18.7z
	 M44.6,58.9l-14.3,8.3v16.3h0.6c8.6,0,15.7-7,15.7-15.6c0,0,0-0.1,0-0.1v-1.2C46.6,63.9,45.9,61.3,44.6,58.9z M30.9,148h-0.6v16.2
	l14.3,8.3c1.3-2.3,2-4.9,2-7.6v-1.2C46.6,155.1,39.6,148,30.9,148C31,148,30.9,148,30.9,148z"/>
<path class="st3" d="M114.3,213.2v-97.1l-84-48.5v97.1L114.3,213.2z"/>
<path class="st4" d="M198.4,163.8v-97l-84,48.5v97.1L198.4,163.8z"/>
</svg>
