<svg enable-background="new 0 0 553 235.3" viewBox="0 0 553 235.3" xmlns="http://www.w3.org/2000/svg"><path d="m239 63h17.8v105h-17.8zm35.6 0h36.3c7.9 0 14.5.9 19.6 2.6s9.2 4.1 12.1 7.1c2.9 2.8 5 6.3 6.2 10.2s1.8 8 1.8 12.1c0 4.4-.6 8.7-1.8 12.9-1.2 4-3.3 7.7-6.2 10.8-3.4 3.3-7.6 5.8-12.1 7.3-5.1 1.8-11.5 2.7-19.3 2.7h-19.1v39.3h-17.5zm36.2 51c3.7.1 7.5-.3 11.1-1.3 2.5-.7 4.9-1.9 6.8-3.7 1.6-1.6 2.9-3.6 3.5-5.8.7-2.5 1-5 1-7.6.1-2.6-.3-5.2-1-7.7-.7-2.1-1.9-4-3.6-5.5-2-1.6-4.4-2.8-6.9-3.4-3.6-.9-7.2-1.3-10.9-1.2h-18.5v36.2zm119.9-51v15.3h-49.2v29.7h46.3v15.4h-46.3v44.6h-17.8v-105zm26.2 72.9c.8 6.9 3.3 11.9 7.4 15s10.4 4.7 18.6 4.7c3.4.1 6.8-.3 10.1-1.3 2.4-.8 4.6-1.9 6.6-3.5 1.6-1.4 2.8-3.2 3.5-5.2.7-2.1 1-4.2 1-6.4 0-1.7-.2-3.3-.7-4.9-.6-1.7-1.4-3.2-2.6-4.5-1.5-1.5-3.2-2.7-5.1-3.6-2.6-1.1-5.4-1.9-8.2-2.4l-13.4-2.5c-4.8-.8-9.5-2.1-14.1-3.7-3.8-1.3-7.3-3.3-10.4-5.8-2.8-2.4-5-5.4-6.3-8.8-1.5-4.1-2.2-8.4-2.1-12.7-.3-8.9 3.9-17.4 11.3-22.4 3.8-2.7 8.1-4.6 12.6-5.6 5.2-1.2 10.5-1.8 15.8-1.8 7.2 0 13.3.8 18.2 2.5 4.4 1.4 8.4 3.6 11.9 6.5 2.9 2.6 5.3 5.8 6.9 9.3s2.6 7.2 3.2 11l-16.8 2.6c-1.4-5.9-3.7-10.2-7.1-13.1s-8.7-4.3-16.1-4.3c-3.5-.1-7.1.3-10.5 1.1-2.4.6-4.8 1.6-6.8 3.1-1.6 1.2-2.9 2.8-3.7 4.6-.7 1.7-1.1 3.5-1.1 5.4 0 4.6 1.2 8 3.7 10.3s6.9 4 13.2 5.3l14.5 2.8c11.1 2.1 19.2 5.6 24.4 10.5s7.8 12.1 7.8 21.4c0 4.2-.8 8.4-2.4 12.3-1.6 3.8-4.2 7.2-7.4 9.8-3.7 3-7.9 5.2-12.4 6.6-5.6 1.7-11.4 2.5-17.3 2.4-13.4 0-24-2.8-31.6-8.5s-11.9-14.4-12.6-26.2z" fill="#191919"/><path d="m30.3 164 84 48.5 84-48.5v-97l-84-48.5-84 48.5z" fill="#469ea2"/><path d="m105.7 30.1-61 35.2c.1 1.1.1 2.2 0 3.3l60.9 35.2c5.1-3.8 12.2-3.8 17.3 0l60.9-35.2c-.1-1.1-.1-2.2 0-3.3l-60.8-35.2c-5.1 3.8-12.2 3.8-17.3 0zm84 48.2-61 35.6c.7 6.3-2.8 12.4-8.6 15l.1 70c1 .4 1.9 1 2.8 1.6l60.9-35.2c-.7-6.3 2.8-12.4 8.6-15v-70.4c-1-.5-1.9-1-2.8-1.6zm-150.8.4c-.9.6-1.8 1.2-2.8 1.6v70.4c5.9 2.5 9.4 8.6 8.6 15l60.9 35.2c.9-.6 1.8-1.2 2.8-1.6v-70.4c-5.9-2.5-9.4-8.6-8.6-15 0 0-60.9-35.2-60.9-35.2z" fill="#6acad1"/><path d="m114.3 29 75.1 43.4v86.7l-75.1 43.4-75.1-43.4v-86.8zm0-10.3-84 48.5v97l84 48.5 84-48.5v-97s-84-48.5-84-48.5z" fill="#469ea2"/><path d="m114.9 132h-1.2c-8.6 0-15.7-7-15.7-15.6v-.1-1.2c0-8.6 7-15.7 15.6-15.7h.1 1.2c8.6 0 15.7 7 15.7 15.6v.1 1.2c0 8.6-7 15.7-15.7 15.7zm0 64.5h-1.2c-5.7 0-10.9 3-13.7 8l14.3 8.2 14.3-8.2c-2.8-5-8-8-13.7-8zm83.5-48.5h-.6c-8.6 0-15.7 7-15.7 15.6v.1 1.2c0 2.7.7 5.3 2 7.6l14.3-8.3zm-14.3-89c-1.3 2.3-2 4.9-2 7.6v1.2c0 8.6 7 15.7 15.6 15.7h.1.6v-16.3zm-69.8-40.3-14.3 8.2c2.8 5 8 8.1 13.7 8.1h1.2c5.7 0 10.9-3 13.7-8zm-69.7 40.2-14.3 8.3v16.3h.6c8.6 0 15.7-7 15.7-15.6v-.1-1.2c0-2.7-.7-5.3-2-7.7zm-13.7 89.1h-.6v16.2l14.3 8.3c1.3-2.3 2-4.9 2-7.6v-1.2c0-8.6-7-15.7-15.7-15.7z" fill="#469ea2"/><g fill="#083b54"><path d="m114.3 213.2v-97.1l-84-48.5v97.1z" fill-opacity=".15"/><path d="m198.4 163.8v-97l-84 48.5v97.1z" fill-opacity=".05"/></g></svg>