<svg enable-background="new 0 0 780.6 235.3" viewBox="0 0 780.6 235.3" xmlns="http://www.w3.org/2000/svg" xmlns:xlink="http://www.w3.org/1999/xlink"><clipPath id="a"><path d="m761.5 135.1c-4.2 0-7.3-2.1-7.3-5.8 0-3.6 2.5-5.5 7.9-5.9l9.6-.7v3.4c0 5.1-4.3 9-10.2 9zm-2 6.2c5.2 0 9.5-2.2 11.9-6.2h.6v5.6h7.5v-26.9c0-8.3-5.6-13.2-15.5-13.2-9 0-15.3 4.3-16.1 10.9h7.5c.9-2.9 3.9-4.5 8.2-4.5 5.3 0 8.1 2.4 8.1 6.7v3.4l-10.7.7c-9.4.6-14.7 4.7-14.7 11.7 0 7.3 5.6 11.8 13.2 11.8zm-24.3-.4c1.5 0 3-.2 4.2-.4v-6.2c-1.1.1-1.8.2-3 .2-3.9 0-5.6-1.8-5.6-6.1v-20.8h8.6v-6.2h-8.6v-10h-7.8v10h-6.3v6.2h6.3v22.7c.1 7.6 3.5 10.6 12.2 10.6zm-32.2-23.4h-19.9c.4-6.3 4.5-10.5 10.2-10.5 5.8-.1 9.5 4.1 9.7 10.5zm-9.6 24c9 0 15.4-4.3 17.1-11.3h-7.5c-1.4 3.2-4.7 4.9-9.4 4.9-6.2 0-10.3-4.5-10.5-11.6v-.4h27.9v-2.7c0-12.3-6.6-19.8-17.6-19.8-11.1 0-18.2 8-18.2 20.5 0 12.6 6.9 20.4 18.2 20.4zm-44.2-6.8c-6.6 0-10.6-5.2-10.7-13.7 0-8.4 4.1-13.7 10.7-13.7s10.5 5.2 10.5 13.7-3.9 13.7-10.5 13.7zm2.2 6.6c10 0 16.3-7.9 16.3-20.3 0-12.5-6.3-20.4-16.3-20.4-5.4 0-10 2.6-12.1 6.9h-.6v-21.6h-7.8v54.8h7.5v-6.2h.6c2.3 4.3 6.9 6.8 12.4 6.8zm-66.9.2c9.4 0 16.3-5 16.3-12.3 0-5.7-3.5-9-11-10.7l-6.6-1.5c-4.3-1-6.3-2.5-6.3-5 0-3.2 3.3-5.3 7.6-5.3 4.4 0 7.2 1.9 8 4.9h7.5c-.8-6.8-6.6-10.9-15.4-10.9-8.9 0-15.3 4.9-15.3 11.8 0 5.8 3.5 9.2 11 10.9l6.9 1.6c4 .9 5.8 2.5 5.8 5 0 3.2-3.4 5.5-8.3 5.5-4.7 0-7.6-1.9-8.6-5h-7.8c.7 6.7 6.8 11 16.2 11zm-40 0c9.7 0 15.8-5.5 16.9-13.2h-7.6c-1 4.3-4.4 6.6-9.3 6.6-6.5 0-10.5-5.3-10.5-14 0-8.5 4-13.7 10.5-13.7 5.2 0 8.4 2.9 9.3 6.8h7.6c-1-7.6-7-13.4-16.9-13.4-11.5 0-18.5 7.8-18.5 20.3 0 12.7 7 20.6 18.5 20.6zm-44.5-6.7c-6.8 0-10.6-5-10.6-13.8s3.8-13.8 10.6-13.8c6.7 0 10.6 5.1 10.6 13.8s-3.9 13.8-10.6 13.8zm0 6.7c11.5 0 18.6-7.7 18.6-20.4s-7.1-20.4-18.6-20.4-18.6 7.8-18.6 20.4 7 20.4 18.6 20.4zm-52.3-7.8h-9.9v-38.3h9.9c10.8 0 17.3 7.1 17.3 19.1 0 12.2-6.3 19.2-17.3 19.2zm.9 7c15.6 0 24.6-9.6 24.6-26.3 0-16.5-9.1-26-24.6-26h-18.9v52.3z"/></clipPath><clipPath id="b"><path d="m-546.4-295.4h6494.7v3613.8h-6494.7z"/></clipPath><path d="m1.2 63h17.8v105h-17.8zm35.6 0h36.3c7.9 0 14.5.9 19.6 2.6s9.2 4.1 12.1 7.1c2.9 2.8 5 6.3 6.2 10.2s1.8 8 1.8 12.1c0 4.4-.6 8.7-1.8 12.9-1.2 4-3.3 7.7-6.2 10.8-3.4 3.3-7.6 5.8-12.1 7.3-5.1 1.8-11.5 2.7-19.3 2.7h-19.1v39.3h-17.5zm36.2 51c3.7.1 7.5-.3 11.1-1.3 2.5-.7 4.9-1.9 6.8-3.7 1.6-1.6 2.9-3.6 3.5-5.8.7-2.5 1-5 1-7.6.1-2.6-.3-5.2-1-7.7-.7-2.1-1.9-4-3.6-5.5-2-1.6-4.4-2.8-6.9-3.4-3.6-.9-7.2-1.3-10.9-1.2h-18.5v36.2zm119.9-51v15.3h-49.2v29.7h46.3v15.4h-46.3v44.6h-17.8v-105zm26.2 72.9c.8 6.9 3.3 11.9 7.4 15s10.4 4.7 18.6 4.7c3.4.1 6.8-.3 10.1-1.3 2.4-.8 4.6-1.9 6.6-3.5 1.6-1.4 2.8-3.2 3.5-5.2.7-2.1 1-4.2 1-6.4 0-1.7-.2-3.3-.7-4.9-.6-1.7-1.4-3.2-2.6-4.5-1.5-1.5-3.2-2.7-5.1-3.6-2.6-1.1-5.4-1.9-8.2-2.4l-13.4-2.5c-4.8-.8-9.5-2.1-14.1-3.7-3.8-1.3-7.3-3.3-10.4-5.8-2.8-2.4-5-5.4-6.3-8.8-1.5-4.1-2.2-8.4-2.1-12.7-.3-8.9 3.9-17.4 11.3-22.4 3.8-2.7 8.1-4.6 12.6-5.6 5.2-1.2 10.5-1.8 15.8-1.8 7.2 0 13.3.8 18.2 2.5 4.4 1.4 8.4 3.6 11.9 6.5 2.9 2.6 5.3 5.8 6.9 9.3s2.6 7.2 3.2 11l-16.8 2.6c-1.4-5.9-3.7-10.2-7.1-13.1s-8.7-4.3-16.1-4.3c-3.5-.1-7.1.3-10.5 1.1-2.4.6-4.8 1.6-6.8 3.1-1.6 1.2-2.9 2.8-3.7 4.6-.7 1.7-1.1 3.5-1.1 5.4 0 4.6 1.2 8 3.7 10.3s6.9 4 13.2 5.3l14.5 2.8c11.1 2.1 19.2 5.6 24.4 10.5s7.8 12.1 7.8 21.4c0 4.2-.8 8.4-2.4 12.3-1.6 3.8-4.2 7.2-7.4 9.8-3.7 3-7.9 5.2-12.4 6.6-5.6 1.7-11.4 2.5-17.3 2.4-13.4 0-24-2.8-31.6-8.5s-11.9-14.4-12.6-26.2z" fill="#191919"/><path d="m367.8 40.7h4v155.4h-4z" fill="#9ad4db"/><g clip-path="url(#a)"><path clip-path="url(#b)" d="m406.6 62.7h396.1v102h-396.1z" fill="#131313"/></g></svg>