<svg version="1.1" xmlns="http://www.w3.org/2000/svg" viewBox="0 0 1423 755" width="1423" height="755">
  <!-- svg-source:excalidraw -->
  
  <defs>
    <style>
      @font-face {
        font-family: "Virgil";
        src: url("https://excalidraw.com/FG_Virgil.woff2");
      }
      @font-face {
        font-family: "Cascadia";
        src: url("https://excalidraw.com/Cascadia.woff2");
      }
    </style>
  </defs>
  <g transform="translate(10 10) rotate(0 112 106)"><path d="M90.76685058911106 1.4273793577033018 C102.99015954015371 -2.357316080844015, 118.13611086613663 0.11188071065292116, 131.72408897122497 2.514466108099896 C145.3120670763133 4.917051505546871, 160.59161836178828 9.112410532167715, 172.29471921964108 15.842891742385149 C183.99782007749388 22.573372952602583, 193.90044641051077 32.22453710305912, 201.9426941183417 42.897353369404506 C209.98494182617264 53.57016963574989, 216.98907877713367 67.28558649614268, 220.54820546662663 79.87978934045745 C224.10733215611958 92.47399218477221, 225.00187886298647 105.82316187911908, 223.29745425529944 118.46257043529306 C221.5930296476124 131.10197899146704, 217.03206784737336 144.2746482157282, 210.32165782050436 155.7162406775013 C203.61124779363536 167.1578331392744, 193.5613517538969 178.6498992383796, 183.03499409408536 187.1121252059317 C172.50863643427382 195.57435117348382, 160.25259663572842 202.52782417037196, 147.16351186163507 206.48959648281408 C134.07442708754172 210.4513687952562, 118.11737849594292 211.61084537224767, 104.50048544952523 210.8827590805845 C90.88359240310754 210.15467278892132, 77.78792653943006 207.40982786597277, 65.46215358312898 202.1210787328351 C53.13638062682791 196.8323295996974, 39.98850015471683 188.66060357199143, 30.54584771171878 179.15026428175844 C21.103195268720725 169.63992499152545, 13.986732684994536 157.11095029636016, 8.806238925140676 145.05904299143714 C3.6257451652868156 133.00713568651412, -0.19170832630053525 119.6918655925431, -0.5371148474043821 106.8388204522204 C-0.8825213685082289 93.98577531189771, 1.6512831829639012 80.12667648494734, 6.733799798517595 67.940772149501 C11.816316414071288 55.75486781405466, 20.5754108658086 43.39703249026415, 29.957984845917778 33.72339443954236 C39.34055882602696 24.04975638882057, 51.739361586919365 15.388551217823533, 63.02924367917268 9.898943845170237 C74.319125771426 4.409336472516941, 90.76003924795569 2.1278790897380473, 97.69727739943767 0.7857502036225839 C104.63451555091964 -0.5563786824928794, 104.63508313737034 0.04426943385961124, 104.65267258806456 1.846170528477458 M66.9185671291475 8.448218286632752 C78.17880358418265 1.6411266240214415, 93.81007097877092 -0.4890172943082547, 107.67461402417173 -1.0130497863629273 C121.53915706957254 -1.5370822784176, 137.20373404123126 0.9046031025528647, 150.10582540155232 5.304023334304716 C163.0079167618734 9.703443566056567, 174.79210058916615 16.45386411727854, 185.08716218609817 25.383471604148184 C195.38222378303018 34.313079091017826, 205.61484176091756 47.120587030429846, 211.87619498314444 58.88166825552259 C218.13754820537133 70.64274948061534, 221.57338289317994 83.30056546449008, 222.65528151945944 95.94995895470466 C223.73718014573893 108.59935244491923, 221.84754422483758 122.30791811365626, 218.3675867408214 134.77802919681005 C214.8876292568052 147.24814027996385, 210.05191408688407 160.52504692966977, 201.7755366153624 170.77062545362742 C193.49915914384073 181.01620397758506, 180.58580359372223 189.61583384437714, 168.70932191169132 196.251500340556 C156.8328402296604 202.88716683673485, 144.17371362851782 208.1908179083879, 130.51664652317692 210.5846244307006 C116.85957941783602 212.97843095301326, 100.63675821656166 213.31984617470826, 86.76691927964593 210.61433947443206 C72.8970803427302 207.90883277415585, 58.47331532984219 201.80913651740096, 47.297612901682534 194.35158422904337 C36.12191047352288 186.89403194068578, 27.353998376095596 176.6928137471051, 19.712704710688016 165.86902574428652 C12.071411045280435 155.04523774146793, 4.648087951831714 142.42912482142006, 1.4498509092370426 129.40885621213192 C-1.7483861333576294 116.38858760284378, -1.9058598061577876 100.83306042792202, 0.5232824551199826 87.74741408855769 C2.952424716397753 74.66176774919336, 8.707217146157664 61.81417091079227, 16.024704476903665 50.89497817594591 C23.342191807649666 39.975785441099546, 35.750497972340675 29.248642523595304, 44.42820643959598 22.232257679479503 C53.10591490685129 15.215872835363701, 63.88884945265187 10.881384713656148, 68.09095528043551 8.796669111251106 C72.29306110821915 6.711953508846063, 69.17176501329978 8.125636443947833, 69.64084140629781 9.723964065049245" stroke="#000000" stroke-width="2" fill="none"></path></g><g transform="translate(26 63.5) rotate(0 96 46)"><text x="96" y="32" font-family="Virgil, Segoe UI Emoji" font-size="36px" fill="#000000" text-anchor="middle" style="white-space: pre;" direction="ltr">tuckerton</text><text x="96" y="78" font-family="Virgil, Segoe UI Emoji" font-size="36px" fill="#000000" text-anchor="middle" style="white-space: pre;" direction="ltr">new jersey</text></g><g transform="translate(1240 497) rotate(0 63 23)"><text x="0" y="32" font-family="Virgil, Segoe UI Emoji" font-size="36px" fill="#000000" text-anchor="start" style="white-space: pre;" direction="ltr">Réunion</text></g><g transform="translate(1202 465) rotate(0 105.5 58)"><path d="M141.68831491061596 3.3105039284968996 C155.15380405360997 5.196648306952036, 169.21451345518054 11.386922965448917, 179.49512685577406 17.1500755346907 C189.77574025636758 22.913228103932482, 198.20681362998783 30.369707265567577, 203.37199531417704 37.889419343947594 C208.53717699836625 45.40913142232761, 211.18519425993577 54.185022261161514, 210.4862169609093 62.268348004970804 C209.78723966188284 70.35167374878009, 206.02727000280356 79.47043247224467, 199.17813152001816 86.38937380680332 C192.32899303723275 93.30831514136197, 181.00532740921744 99.1060813852529, 169.39138606419687 103.78199601232271 C157.7774447191763 108.45791063939251, 143.7988964649139 112.62032348331438, 129.4944834498947 114.44486156922211 C115.19007043487547 116.26939965512985, 97.93005813057809 116.47743236581047, 83.56490797408156 114.72922452776913 C69.19975781758504 112.9810166897278, 55.09544007163929 108.79323351120635, 43.30358251091549 103.9556145409741 C31.51172495019169 99.11799557074184, 19.947225522702663 92.40069500199021, 12.81376260973876 85.70351070637562 C5.680299696774857 79.00632641076103, 1.5812331892340221 71.57768841280152, 0.502805033132077 63.772508767286546 C-0.5756231229698681 55.96732912177157, 1.6495406386415041 46.47643527732098, 6.3431936731270895 38.872432833285785 C11.036846707612675 31.268430389250586, 18.62952144515522 24.014365203991996, 28.66472324004559 18.148494103075357 C38.69992503493596 12.282623002158719, 53.02659574929909 6.689619278702056, 66.55440444246932 3.677206227785952 C80.08221313563955 0.6647931768698476, 94.78475890641887 -0.651095452735183, 109.83157539906695 0.07401579757873122 C124.87839189171503 0.7991270478926454, 147.021440972362 5.781286017072437, 156.83530339835778 8.027873729669437 C166.64916582435356 10.274461442266437, 169.78625819886983 12.95460542968346, 168.71474995504167 13.553542073160727 M60.22023574418555 4.831155099615437 C72.03461391204635 0.8595940282041794, 90.53031470502071 0.4172421504367196, 105.45356714600959 0.4439495428017821 C120.37681958699847 0.47065693516684465, 136.71321784927835 1.899885295976432, 149.75975039011882 4.991399453805812 C162.8062829309593 8.082913611635192, 174.1253932291651 12.855763219159432, 183.7327623910524 18.99303448977806 C193.3401315529397 25.13030576039669, 202.88876541256786 33.90264150012466, 207.40396536144272 41.8150270775176 C211.91916531031757 49.72741265491054, 212.9434386720144 58.74937376402801, 210.8239620843015 66.4673479541357 C208.70448549658863 74.1853221442434, 202.34567449698622 81.66169474628201, 194.68710583516548 88.12287221816376 C187.02853717334474 94.58404969004552, 177.0069931364375 100.57021127051546, 164.87255011337703 105.23441278542626 C152.73810709031656 109.89861430033706, 136.31746067668902 114.68061421738845, 121.8804476968027 116.10808130762857 C107.44343471691639 117.53554839786868, 92.20675473276792 115.94573592023254, 78.2504722340591 113.79921532686696 C64.29418973535029 111.65269473350138, 49.29751406659831 108.28387457125206, 38.14275270454979 103.22895774743512 C26.987991342501275 98.17404092361818, 17.87865776427953 90.97334935854575, 11.32190406176801 83.46971438396531 C4.765150359256488 75.96607940938488, -0.5413270136874525 66.21136289279046, -1.1977695105193362 58.20714789995248 C-1.85421200735122 50.202932907114494, 1.644516870834991 42.38550044077473, 7.383249080776707 35.4444244269374 C13.121981290718423 28.503348413100074, 24.50098880744249 21.734504695265574, 33.23462374913096 16.560691816928518 C41.96825869081943 11.386878938591462, 55.138883156684514 6.029200662739949, 59.78505873090752 4.401547156915058 C64.43123430513053 2.773893651090167, 60.183691821192596 5.851676481549963, 61.11167719446901 6.7947707819791745" stroke="#000000" stroke-width="2" fill="none"></path></g><g transform="translate(700 699) rotate(0 111 23)"><text x="0" y="32" font-family="Virgil, Segoe UI Emoji" font-size="36px" fill="#000000" text-anchor="start" style="white-space: pre;" direction="ltr">south africa</text></g><g transform="translate(586 469) rotate(0 57 23)"><text x="0" y="32" font-family="Virgil, Segoe UI Emoji" font-size="36px" fill="#000000" text-anchor="start" style="white-space: pre;" direction="ltr">angola</text></g><g transform="translate(160 464) rotate(0 48.5 23)"><text x="0" y="32" font-family="Virgil, Segoe UI Emoji" font-size="36px" fill="#000000" text-anchor="start" style="white-space: pre;" direction="ltr">brazil</text></g><g transform="translate(392 227) rotate(0 70.5 23)"><text x="0" y="32" font-family="Virgil, Segoe UI Emoji" font-size="36px" fill="#000000" text-anchor="start" style="white-space: pre;" direction="ltr">bermuda</text></g><g><g transform="translate(1222 486) rotate(0 -487.90351431804 -53.48426888264714)"><path d="M0.6868994157761334 -1.0783010702580214 C-3.56382166929543 -4.102465226377051, 61.25701759668688 -52.670256994292146, -26.470962424948812 -17.827214704081417 C-114.1989424465845 17.01582758612931, -422.47537147589026 198.81015396701792, -525.680980714038 207.97995267100632 C-628.8865899521858 217.1497513749947, -574.2245247442276 76.9660713929683, -645.7046178538352 37.19157751984894 C-717.1847109634429 -2.582916353270413, -922.0344566940018 9.674257165069385, -954.5615393716841 -30.667010567709802 C-987.0886220493664 -71.008278300489, -834.0323849358906 -157.61990704350174, -840.8671139199287 -204.85602887682617 C-847.7018429039667 -252.0921507101506, -969.7328968722373 -295.86491976790126, -995.5699132759124 -314.0837415676564 M-0.41161712028086184 0.9699869225174189 C-4.689488063827158 -2.384995667363207, 60.50333296599486 -53.531065128073095, -27.141263161674143 -19.334077172502877 C-114.78585928934315 14.862910783067345, -423.16479721643026 196.53023235934478, -526.2791938862949 206.15191465593875 C-629.3935905561596 215.77359695253273, -574.2404487357289 77.85907763220371, -645.8276431808621 38.39601660706103 C-717.4148376259952 -1.0670444180816432, -923.0202825619529 9.553785306389134, -955.8023605570942 -30.626451494917273 C-988.5844385522355 -70.80668829622368, -835.9494752901544 -155.29839771054685, -842.5201111517101 -202.6854042007774 C-849.0907470132659 -250.07241069100797, -970.0258858070523 -296.3837922193855, -995.2261757264287 -314.94849043630063" stroke="#000000" stroke-width="2" fill="none"></path></g><g transform="translate(1222 486) rotate(0 -487.90351431804 -53.48426888264714)"><path d="M-967.3698929646704 -309.5200226204668 C-970.1374836250909 -310.69808011095284, -976.966232452672 -313.40191017189716, -994.9068798600138 -314.21772272244095 M-966.0476522441674 -309.63820321859913 C-973.6044308587768 -311.03204806635256, -980.8215997813782 -312.92216059883475, -994.2536130920425 -314.3775659837946" stroke="#000000" stroke-width="2" fill="none"></path></g><g transform="translate(1222 486) rotate(0 -487.90351431804 -53.48426888264714)"><path d="M-977.2300698442264 -291.5228863402219 C-977.881532150242 -296.70680277201603, -982.5464946718973 -303.36005052645174, -994.9068798600138 -314.21772272244095 M-975.9078291237233 -291.6410669383542 C-981.2245307324207 -297.3633576950654, -986.0317167726679 -303.652254437668, -994.2536130920425 -314.3775659837946" stroke="#000000" stroke-width="2" fill="none"></path></g></g></svg>