<?xml version="1.0" encoding="UTF-8"?>
<svg width="387px" height="90px" viewBox="0 0 387 90" version="1.1" xmlns="http://www.w3.org/2000/svg" xmlns:xlink="http://www.w3.org/1999/xlink">
    <!-- Generator: Sketch 56.3 (81716) - https://sketch.com -->
    <title>Artboard 3 (2)</title>
    <desc>Created with Sketch.</desc>
    <g id="Page-1" stroke="none" stroke-width="1" fill="none" fill-rule="evenodd">
        <g id="Artboard-3-(2)" transform="translate(1.000000, 0.000000)" fill-rule="nonzero">
            <path d="M124.34,60.48 L122.04,66.78 L106.9,66.78 L125.72,22.18 L140.86,22.18 L159,66.78 L143.3,66.78 L141.07,60.48 L124.34,60.48 Z M132.87,36.88 L128.17,49.88 L137.45,49.88 L132.87,36.88 Z M193.84,55.2 L188.3,55.2 L188.3,66.78 L173.55,66.78 L173.55,22.2 L195.11,22.2 C207.19,22.2 214.11,28 214.11,38.2 C214.11,44.68 211.61,49.52 207.05,52.32 L215.82,66.82 L199.18,66.82 L193.84,55.2 Z M195.1,44 C198.28,44 200.1,42 200.1,38.6 C200.1,35.2 198.26,33.4 195.1,33.4 L188.3,33.4 L188.3,44 L195.1,44 Z M254.24,22.2 C264.98,22.2 271.92,26.65 271.92,33.46 C271.92,37.86 268.99,41.6 264.42,43 C269.700644,44.1237552 273.421748,48.8635325 273.26,54.26 C273.26,61.89 266.2,66.79 255.33,66.79 L231.67,66.79 L231.67,22.2 L254.24,22.2 Z M246.34,39.37 L253.4,39.37 C254.292785,39.4491433 255.176129,39.1380046 255.822239,38.5168191 C256.468348,37.8956336 256.813979,37.0252067 256.77,36.13 C256.812319,35.2452497 256.461493,34.3870207 255.81152,33.7852655 C255.161547,33.1835102 254.278873,32.8997445 253.4,33.01 L246.34,33.01 L246.34,39.37 Z M246.34,55.97 L253.4,55.97 C256.14,55.97 257.92,54.57 257.92,52.41 C257.92,50.41 256.14,49.17 253.4,49.17 L246.34,49.17 L246.34,55.97 Z M336.44,44.45 C336.44,57.68 326.14,67.45 311.96,67.45 C297.78,67.45 287.46,57.78 287.46,44.45 C287.46,31.12 297.76,21.75 311.96,21.75 C326.16,21.75 336.44,31.29 336.44,44.45 Z M302.61,44.52 C302.61,50.62 307.06,55.14 312.15,55.14 C317.24,55.14 321.3,50.62 321.3,44.52 C321.3,38.42 317.24,34 312.16,34 C307.08,34 302.62,38.4 302.62,44.52 L302.61,44.52 Z M385.89,54.5 L385.89,66.78 L352.56,66.78 L352.56,22.2 L367.32,22.2 L367.32,54.5 L385.89,54.5 Z" id="Shape" fill="#60B554"></path>
            <g id="Group" stroke-linejoin="bevel" transform="translate(8.000000, 8.000000)" fill="#2FB77C" stroke="#000000" stroke-width="0.25">
                <polygon id="Path" points="17.2 14.95 25.73 0.8 8.65 0.4 0.05 14.15 17.19 14.95"></polygon>
                <polygon id="Path" points="17.22 14.14 17.28 30.8 0.74 30.2 0.06 14.15 17.22 14.15"></polygon>
            </g>
            <g id="Group" stroke-linejoin="bevel" transform="translate(8.000000, 38.000000)" fill="#56B256" stroke="#000000" stroke-width="0.25">
                <polygon id="Path" points="24.67 14.68 8.64 14.68 0.74 0.18 17.28 0.78 24.68 14.66"></polygon>
                <polygon id="Path" points="38.9 22.62 22.37 22.62 8.64 14.68 24.67 14.68 38.9 22.62"></polygon>
            </g>
            <polygon id="Path" stroke="#000000" stroke-width="0.25" fill="#60B454" stroke-linejoin="bevel" points="47.24 0.13 30.37 0.8 16.65 8.4 33.73 8.82"></polygon>
            <g id="Group" stroke-linejoin="bevel" transform="translate(22.000000, 66.000000)" fill="#6B9250" stroke="#000000" stroke-width="0.25">
                <polygon id="Path" points="16.24 8.73 0.04 8.27 8.69 23.07 24.89 23.54 16.23 8.74"></polygon>
                <polygon id="Path" points="16.24 8.73 30.58 0.78 38.41 14.86 24.91 23.54 16.25 8.74"></polygon>
            </g>
            <g id="Group" stroke-linejoin="bevel" transform="translate(52.000000, 37.000000)" fill="#808A46" stroke="#000000" stroke-width="0.25">
                <polygon id="Path" points="8.84 15.88 16.94 29.72 8.41 43.86 0.58 29.78 8.84 15.88"></polygon>
                <polygon id="Path" points="9.47 0 17.3 14.14 16.94 29.74 8.84 15.9 9.47 -7.10542736e-15"></polygon>
            </g>
            <polygon id="Path" stroke="#000000" stroke-width="0.25" fill="#56B256" stroke-linejoin="bevel" points="7.73 66.65 17.23 81.05 30.7 89.07 22.05 74.27 7.75 66.65"></polygon>
            <polygon id="Path" stroke="#000000" stroke-width="0.25" fill="#34A259" stroke-linejoin="bevel" points="16.3 51.8 8.68 37.5 0.1 52.34 7.72 66.64"></polygon>
            <g id="Group" stroke-linejoin="bevel" transform="translate(7.000000, 51.000000)" fill="#56B256" stroke="#000000" stroke-width="0.25">
                <polygon id="Path" points="9.3 0.8 23.32 9.32 15.04 23.28 0.74 15.66"></polygon>
                <polygon id="Path" points="39.48 9.6 31.24 23.72 15.04 23.26 23.32 9.3 39.48 9.6"></polygon>
                <polygon id="Path" points="53.84 1.88 45.58 15.78 31.24 23.73 39.48 9.61 53.84 1.88"></polygon>
            </g>
            <polygon id="Path" stroke="#000000" stroke-width="0.25" fill="#2FB77C" stroke-linejoin="bevel" points="8.06 22.14 0.4 36.66 0.1 52.34 8.68 37.5 8.06 22.15"></polygon>
            <polygon id="Path" stroke="#000000" stroke-width="0.25" fill="#73834D" stroke-linejoin="bevel" points="68.94 66.72 60.4 80.86 77.48 81.28 86.08 67.53 68.94 66.73"></polygon>
            <g id="Group" stroke-linejoin="bevel" transform="translate(61.000000, 37.000000)" fill="#808A46" stroke="#000000" stroke-width="0.25">
                <polygon id="Path" points="7.92 29.87 8.3 14.13 24.46 15.17 25.08 30.53"></polygon>
                <polygon id="Path" points="0.47 0 16.5 0 24.46 15.18 8.3 14.14"></polygon>
            </g>
            <polygon id="Path" stroke="#000000" stroke-width="0.25" fill="#61B053" stroke-linejoin="bevel" points="47.24 29.05 63.77 29.05 77.5 37 61.47 37 47.24 29.06"></polygon>
            <polygon id="Path" stroke="#000000" stroke-width="0.25" fill="#73834D" stroke-linejoin="bevel" points="46.9 89.54 63.77 88.86 77.49 81.28 60.41 80.86 46.91 89.54"></polygon>
            <polygon id="Path" stroke="#000000" stroke-width="0.25" fill="#7C9759" stroke-linejoin="bevel" points="55.67 15.17 72.17 15.57 63.45 0.6 47.24 0.13"></polygon>
            <g id="Group" stroke-linejoin="bevel" transform="translate(25.000000, 0.000000)" fill="#60B454" stroke="#000000" stroke-width="0.25">
                <polygon id="Path" points="30.67 15.17 16.57 22.89 8.73 8.8 22.24 0.13"></polygon>
                <polygon id="Path" points="8.3 36.78 0.2 22.95 8.73 8.8 16.56 22.88"></polygon>
            </g>
            <polygon id="Path" stroke="#000000" stroke-width="0.25" fill="#61B053" stroke-linejoin="bevel" points="32.67 52.68 25.27 38.8 25.19 22.95 33.29 36.78 32.66 52.68"></polygon>
            <polygon id="Path" stroke="#000000" stroke-width="0.25" fill="#DC8775" stroke-linejoin="bevel" points="86.42 23 76.92 8.6 63.45 0.6 72.17 15.58"></polygon>
            <g id="Group" stroke-linejoin="bevel" transform="translate(63.000000, 15.000000)" fill="#808A46" stroke="#000000" stroke-width="0.25">
                <polygon id="Path" points="14.83 22.88 22.46 37.18 31.03 22.34 23.42 8 14.82 22.87"></polygon>
                <polygon id="Path" points="14.83 22.88 0.83 14.36 9.18 0.58 23.42 8 14.82 22.87"></polygon>
            </g>
            <g id="Group" stroke-linejoin="bevel" transform="translate(33.000000, 15.000000)" fill="#60B454" stroke="#000000" stroke-width="0.25">
                <polygon id="Path" points="14.66 14.06 22.66 0.16 39.16 0.56 30.81 14.34 14.65 14.04"></polygon>
                <polygon id="Path" points="0.3 21.78 8.56 7.42 22.66 0.17 14.66 14.07 0.3 21.79"></polygon>
            </g>
            <polygon id="Path" stroke="#000000" stroke-width="0.25" fill="#808A46" stroke-linejoin="bevel" points="86.08 67.53 93.74 53 94.04 37.33 85.47 52.17 86.09 67.53"></polygon>
        </g>
    </g>
</svg>