<?xml version="1.0" encoding="utf-8"?>
<!-- Generator: Adobe Illustrator 24.3.0, SVG Export Plug-In . SVG Version: 6.00 Build 0)  -->
<svg version="1.1" id="Layer_2_1_" xmlns="http://www.w3.org/2000/svg" xmlns:xlink="http://www.w3.org/1999/xlink" x="0px" y="0px"
	 viewBox="0 0 948 408" style="enable-background:new 0 0 948 408;" xml:space="preserve">
<style type="text/css">
	.st0{fill:#28646E;}
	.st1{fill:url(#SVGID_1_);}
</style>
<path class="st0" d="M516.9,234.7h-23.4c-0.7,0.1-1.3-0.4-1.4-1.1c0-0.1,0-0.2,0-0.3V184c0.1-1.4-0.9-2.7-2.3-2.8
	c-0.2,0-0.4,0-0.5,0h-8.1c-1.4-0.2-2.7,0.9-2.8,2.3c0,0.2,0,0.4,0,0.5v57.8c0,3.6,2,5.6,5.6,5.6h32.9c1.4,0.2,2.7-0.9,2.8-2.3
	c0-0.2,0-0.4,0-0.5v-7.1c0.2-1.4-0.9-2.7-2.3-2.8C517.2,234.7,517.1,234.7,516.9,234.7z"/>
<path class="st0" d="M861.5,206.9h-9c-1.4-0.1-2.6,0.9-2.7,2.3c0,0.2,0,0.4,0,0.5v35c-0.2,1.4,0.8,2.6,2.2,2.8c0.2,0,0.4,0,0.5,0h9
	c1.4,0.1,2.6-0.9,2.7-2.3c0-0.2,0-0.3,0-0.5v-35c0.2-1.4-0.8-2.6-2.2-2.8C861.8,206.9,861.7,206.9,861.5,206.9z"/>
<path class="st0" d="M852.8,197.8c0.8-0.5,0.7-1.3,0.6-1.9c-0.4-3.1-3.5-16.4-4.4-19.1c-0.2-1-1.1-1.7-2.2-1.5c-0.1,0-0.1,0-0.2,0
	c-1.3,0.3-3.1,1.1-5.8,2.8s-4.3,2.8-5.1,3.8c-0.7,0.8-0.6,2,0.1,2.7c0,0,0.1,0.1,0.1,0.1c2,2.1,12.3,11,14.9,12.8
	C851.3,197.8,852,198.2,852.8,197.8L852.8,197.8z"/>
<path class="st0" d="M860.8,180.2c0.8,0.4,1.4-0.1,1.9-0.5c5-4.2,9.7-8.7,14.2-13.5c0.8-0.7,0.9-1.9,0.2-2.7c0,0-0.1-0.1-0.1-0.1
	c-0.9-1-2.5-2.1-5.3-3.5s-4.6-2.3-5.9-2.5c-1-0.2-2,0.5-2.2,1.5c0,0,0,0.1,0,0.1c-0.8,2.8-3.1,16.2-3.4,19.3
	C860,179,859.9,179.8,860.8,180.2L860.8,180.2z"/>
<path class="st0" d="M555.5,206.9h-9c-1.4-0.1-2.6,0.9-2.7,2.3c0,0.2,0,0.3,0,0.5v35c-0.2,1.4,0.8,2.6,2.2,2.8c0.2,0,0.3,0,0.5,0h9
	c1.4,0.1,2.6-0.9,2.7-2.3c0-0.2,0-0.4,0-0.5v-35c0.2-1.4-0.8-2.6-2.2-2.8C555.8,206.9,555.7,206.9,555.5,206.9z"/>
<path class="st0" d="M546.8,197.8c0.8-0.5,0.6-1.3,0.6-1.9c-0.4-3.1-3.5-16.4-4.4-19.1c-0.2-1-1.2-1.7-2.2-1.5c0,0-0.1,0-0.1,0
	c-1.3,0.3-3.1,1.1-5.8,2.8s-4.3,2.8-5.1,3.8c-0.7,0.8-0.6,2,0.1,2.7c0,0,0.1,0.1,0.1,0.1c2,2.1,12.3,11,14.9,12.8
	C545.3,197.8,546,198.2,546.8,197.8L546.8,197.8z"/>
<path class="st0" d="M554.8,180.2c0.8,0.4,1.4-0.1,1.9-0.5c5-4.2,9.7-8.7,14.2-13.5c0.8-0.7,0.9-1.9,0.2-2.7c0,0-0.1-0.1-0.1-0.1
	c-0.9-1-2.5-2.1-5.3-3.5s-4.6-2.3-5.9-2.5c-1-0.2-2,0.5-2.2,1.5c0,0,0,0.1,0,0.1c-0.8,2.8-3.1,16.2-3.4,19.3
	C554,179,553.9,179.8,554.8,180.2L554.8,180.2z"/>
<path class="st0" d="M629.5,247.4h-8.1c-1.4,0.2-2.7-0.9-2.8-2.3c0-0.2,0-0.4,0-0.5v-11.9c-0.2-5.2-4.5-9.2-9.7-9
	c-4.9,0.2-8.9,4.1-9,9v11.9c0.1,1.4-0.9,2.7-2.3,2.8c-0.2,0-0.4,0-0.5,0H589c-1.4,0.2-2.7-0.9-2.8-2.3c0-0.2,0-0.4,0-0.5v-59.3
	c-0.1-1.4,0.9-2.7,2.3-2.8c0.2,0,0.4,0,0.5,0h8.1c1.4-0.2,2.7,0.9,2.8,2.3c0,0.2,0,0.4,0,0.5v25.2c0,1.1,0.9,1.9,1.9,1.9
	c0,0,0.1,0,0.1,0c1.5-0.2,2.8-1.1,3.6-2.4l10.8-16c1.3-1.8,2.4-2.7,4.2-2.7h9.5c2,0,3.1,1.7,1.9,3.5l-12.2,16.5
	c-0.6,1-0.8,1.9,0.8,2.7c7.2,3.5,11.8,10.8,11.8,18.8v11.9c0.2,1.4-0.8,2.7-2.2,2.8C629.9,247.4,629.7,247.4,629.5,247.4z"/>
<path class="st0" d="M674.8,189.9c-13.1,0-21.8,9.5-21.8,20.2v17.9c0,10.8,8.7,20.2,21.8,20.2c11.9,0,16.5-5.6,18.8-10.3
	c0.7-1.2,0.4-2.8-0.7-3.6l-5.7-3.8c-1-0.9-2.6-0.7-3.4,0.3c-0.1,0.1-0.1,0.2-0.2,0.3c-2.3,3.9-5,5.6-8.8,5.6
	c-4.8,0.1-8.7-3.6-8.8-8.4c0-0.1,0-0.2,0-0.3v-2.2c-0.1-0.7,0.4-1.3,1.1-1.3c0.1,0,0.2,0,0.3,0h24c3.4,0,5.3-1.9,5.3-5.3v-9.1
	C696.6,199.4,687.9,189.9,674.8,189.9z M683.6,212.3c0.1,0.7-0.4,1.3-1.1,1.3c-0.1,0-0.2,0-0.3,0h-15c-0.7,0.1-1.3-0.4-1.3-1.1
	c0-0.1,0-0.2,0-0.3v-2.2c0.2-4.9,4.3-8.7,9.1-8.5c4.7,0.2,8.4,3.9,8.5,8.5L683.6,212.3z"/>
<path class="st0" d="M741.8,192.2c5.6,0,7.8,3.7,10.2,7.7c0.9,1.4,2.4,1.5,3.8,0.6l5.9-3.9c1.5-1,1.1-2.9,0.8-3.8
	c-2.4-6.2-9.5-12.6-20.7-12.6c-13.7,0-22.8,9.9-22.8,21.1v25.9c0,11.3,9.1,21.1,22.8,21.1c11.3,0,18.3-6.5,20.7-12.6
	c0.4-0.9,0.8-2.8-0.8-3.8l-5.9-3.9c-1.1-0.9-2.7-0.7-3.6,0.3c-0.1,0.1-0.1,0.2-0.2,0.3c-2.4,4-4.7,7.7-10.2,7.7
	c-5,0.1-9.1-3.8-9.2-8.8c0-0.1,0-0.2,0-0.3v-25.8c-0.1-5,3.9-9,8.9-9.1C741.6,192.2,741.7,192.2,741.8,192.2z"/>
<path class="st0" d="M802.3,190.5c-13.1,0-21.8,9.5-21.8,20.2v17.3c0,10.8,8.7,20.2,21.8,20.2s21.8-9.5,21.8-20.2v-17.3
	C824.1,200,815.4,190.5,802.3,190.5z M811.2,228.1c-0.2,4.9-4.3,8.7-9.1,8.5c-4.7-0.2-8.4-3.9-8.5-8.5v-17.3
	c0.2-4.9,4.3-8.7,9.1-8.5c4.7,0.2,8.4,3.9,8.5,8.5V228.1z"/>
<path class="st0" d="M914.5,190.5c-3.9,0-7.7,1-11.1,2.9c-0.6,0.4-1.4,0.2-1.7-0.4c0,0,0-0.1-0.1-0.1c-0.5-0.8-1.4-1.2-2.3-1.1h-5
	c-1.4-0.1-2.7,0.9-2.8,2.3c0,0.2,0,0.4,0,0.5v50c-0.2,1.4,0.9,2.7,2.3,2.8c0.2,0,0.4,0,0.5,0h8.1c1.4,0.2,2.7-0.9,2.8-2.3
	c0-0.2,0-0.4,0-0.5v-32.7c0-5.2,4.2-9.3,9.3-9.3c5.2,0,9.3,4.2,9.3,9.3v32.7c-0.2,1.4,0.9,2.7,2.3,2.8c0.2,0,0.4,0,0.5,0h8.1
	c1.4,0.2,2.7-0.9,2.8-2.3c0-0.2,0-0.4,0-0.5v-32.7C937.5,200.5,928.3,190.5,914.5,190.5z"/>
<linearGradient id="SVGID_1_" gradientUnits="userSpaceOnUse" x1="6.5" y1="204" x2="398.5" y2="204" gradientTransform="matrix(1 0 0 -1 0 408)">
	<stop  offset="0" style="stop-color:#D2F0F0"/>
	<stop  offset="1" style="stop-color:#F0E6B4"/>
</linearGradient>
<circle class="st1" cx="202.5" cy="204" r="196"/>
<path class="st0" d="M202.5,387.8c-101.3,0-183.8-82.4-183.8-183.8S101.2,20.2,202.5,20.2S386.2,102.7,386.2,204
	S303.8,387.8,202.5,387.8z M202.5,35.8c-92.7,0-168.2,75.4-168.2,168.2s75.4,168.2,168.2,168.2S370.7,296.7,370.7,204
	S295.2,35.8,202.5,35.8z"/>
<path class="st0" d="M190.4,170.4c-2.9,0-5.2-2.3-5.2-5.2c0-1.5,0.6-2.9,1.8-3.9c14.8-13,21.3-23.7,22.5-25.8
	c4.3-7.6,11.3-11.5,18.6-10.5c2.9,0.4,4.9,3,4.5,5.9s-3,4.9-5.9,4.5l0,0c-4.3-0.6-7.1,3.5-8.2,5.3c-1.3,2.3-8.6,14.3-24.6,28.4
	C192.9,170,191.6,170.4,190.4,170.4z"/>
<path class="st0" d="M102.4,259c-2.9,0-5.2-2.3-5.2-5.2c0-1.5,0.7-3,1.9-4c6.1-4.8,12.5-9.1,19.2-12.9c2.6-1.2,5.7,0,6.9,2.6
	c1.1,2.5,0.1,5.4-2.2,6.7c-6,3.4-11.8,7.3-17.2,11.5C104.8,258.6,103.6,259,102.4,259z"/>
<path class="st0" d="M233.8,209.4c2.1,1.9,4.5,1.1,6.7-1c15.1-14.4,31.2-37.1,36.5-48.9c1.1-2.5,3.5-3.9,5.9-2.9
	c2.9,1.2,2.9,6.2,0.2,11.6c-7,14.4-16.7,30.3-35.9,50.1c-1.6,1.5-1.7,4-0.2,5.7c0.1,0.1,0.2,0.2,0.3,0.3c1.7,1.5,4.4,1.4,7-1.2
	c10-10.1,16.6-18,22.4-26.1c1.5-2.1,3.2-3,5-2.6c2.5,0.5,2.9,2.9,2.1,5.8c-1.2,4.7-14.5,22-19.7,27.9
	c-14.2,15.8-28.4,24.5-55.7,38.7c-9.5,5-16.7,9.7-21,17c-3.9,6.6-5.1,8.8-5.5,9.6c-1.6,3.2-0.3,7.2,2.9,8.8c3.2,1.5,7,0.2,8.6-3
	c0.1-0.1,0.1-0.2,0.1-0.3c0-0.1-0.2,0.1,4.9-8.6c3.9-6.2,9.5-11.1,16.1-14.2c27.3-12.5,38.5-22.3,54.4-38.2
	c7.2-7.2,17.2-22.8,20-27.3c7.6-12.9,3.6-23.9-3.3-25.8c-0.5-0.1-0.8-0.6-0.6-1.1c0-0.1,0.1-0.2,0.1-0.2c5.3-9.1,7.8-15.5,8.8-20.4
	c1.4-6.7-0.5-14.7-9.7-16.7c-0.5-0.1-0.8-0.6-0.6-1.1c0,0,0,0,0,0c0.6-2.1,1.1-4.8,1.5-6.5c1.9-8.6-3.5-16.5-10.1-17.9
	c-4.3-1-8.8,0-12.3,2.6c-0.5,0.3-1.2,0.3-1.6-0.2c-1.7-1.9-4.2-3.1-6.8-3.2c-5.7-0.1-11.4,1.7-15.5,10.5c-3,6.3-7.3,14.7-20.2,29
	c-11.9,13.2-28.5,26.1-38.8,32.9c-1.8,1.2-4.3,0.9-4-1.5c0.5-3.8,4.6-29.6,5.3-37.2c1.1-12.3-5.5-18-12.9-19
	c-6.1-0.8-15.4,0.9-20.5,14.9c-3,8.2-9.2,21.6-14.5,43.2c-3.7,15.2-4.3,32.9-0.9,53.3c0.2,1.2,0,2.5-0.7,3.6
	c-4.1,6.7-10,15.5-13.3,23.1c-1.4,3.1-0.2,6.7,2.7,8.4c3.1,1.7,7,0.6,8.7-2.6c0.1-0.1,0.1-0.2,0.2-0.3c2-4.2,6-12,7.6-15.2
	c2.8-5.6,4.6-9.4,5.3-11.7c0.7-2.1,1.1-4.6-0.1-10.3c-2.1-9.5-2.8-27.3,1.1-43c4.2-16.3,9.4-32.3,15.4-48c1.6-3.9,3.8-5,6-4.9
	s6.4,1.3,5.2,9.1c-2.2,14.1-5.2,32-6.2,38c-0.5,3-1.1,9.9,4.4,13c4.2,2.5,8.9,1.1,14.1-2.4c11.6-7.8,31.7-23.6,44.3-37.7
	c13.2-14.9,17.4-23.7,20.8-31.7c1.5-3.6,5.5-3.6,6.9-3.2s3.1,2.3,1.9,6.3c-2.9,9.8-15,32.1-38.3,53.1c-2.6,2.4-2.3,5.2-0.9,6.7
	s3.7,2.4,6.4,0c20.9-17.8,32.8-39.1,38.2-50.5c1.8-3.8,3.3-7.7,4.6-11.7c1.1-3.3,3.7-4.5,5.5-4.1c2.5,0.5,4.2,3.1,3.4,7.4
	c-1.3,5.5-3.2,10.8-5.7,15.9c-6.7,14.2-20.9,33.2-36.1,49.6c-1.8,1.6-1.9,4.3-0.4,6.1C233.6,209.2,233.7,209.3,233.8,209.4z"/>
<path class="st0" d="M139.3,138.6c0.8-0.7,0.5-1.6,0.3-2.4c-1.1-3.6-7.5-18.6-9.2-21.6c-0.9-1.5-1.9-1.7-3.1-1.3
	c-1.5,0.6-3.4,2-6.2,4.5s-4.5,4.2-5.2,5.6c-0.6,1.1-0.5,2.2,0.9,3.2c2.8,2.1,16.8,10.4,20.3,12C137.6,139,138.5,139.4,139.3,138.6
	L139.3,138.6z"/>
<path class="st0" d="M255.2,271.6c-1.1,0.1-1.4,1-1.6,1.7c-1.3,3.5-5.3,19.4-5.8,22.8c-0.2,1.7,0.5,2.5,1.6,2.9
	c1.5,0.5,3.9,0.5,7.7,0.2s6.1-0.6,7.6-1.3c1.1-0.5,1.7-1.4,1.2-3.1c-1-3.3-7.1-18.5-8.8-21.8C256.7,272.4,256.3,271.5,255.2,271.6
	L255.2,271.6z"/>
<path class="st0" d="M264.3,264.2c-0.5,1,0.1,1.7,0.6,2.3c2.4,2.9,13.8,14.6,16.4,16.8c1.3,1.1,2.4,0.9,3.3,0.1
	c1.2-1.1,2.4-3.1,4.2-6.4s2.7-5.5,2.9-7.1c0.2-1.2-0.3-2.2-2-2.7c-3.3-0.9-19.5-3.6-23.2-3.8C265.8,263.3,264.8,263.2,264.3,264.2
	L264.3,264.2z"/>
<path class="st0" d="M133.7,148.4c-0.2-1.1-1.1-1.3-1.9-1.4c-3.7-0.9-19.8-3.2-23.3-3.3c-1.7-0.1-2.5,0.8-2.7,2
	c-0.3,1.6-0.1,3.9,0.6,7.6s1.2,6,2.1,7.4c0.6,1.1,1.6,1.6,3.2,0.9c3.2-1.3,17.6-9,20.7-11.1C133.1,150,133.9,149.5,133.7,148.4
	L133.7,148.4z"/>
<circle class="st0" cx="202.5" cy="352.2" r="5.8"/>
<circle class="st0" cx="202.5" cy="55.8" r="5.8"/>
<circle class="st0" cx="240.9" cy="347.1" r="5.8"/>
<circle class="st0" cx="164.1" cy="60.9" r="5.8"/>
<circle class="st0" cx="276.6" cy="332.3" r="5.8"/>
<ellipse transform="matrix(0.1602 -0.9871 0.9871 0.1602 33.1579 190.2925)" class="st0" cx="128.4" cy="75.7" rx="5.8" ry="5.8"/>
<circle class="st0" cx="307.3" cy="308.8" r="5.8"/>
<circle class="st0" cx="97.7" cy="99.2" r="5.8"/>
<circle class="st0" cx="330.8" cy="278.1" r="5.8"/>
<circle class="st0" cx="74.2" cy="129.9" r="5.8"/>
<circle class="st0" cx="345.6" cy="242.4" r="5.8"/>
<circle class="st0" cx="59.4" cy="165.6" r="5.8"/>
<circle class="st0" cx="350.7" cy="204" r="5.8"/>
<circle class="st0" cx="54.3" cy="204" r="5.8"/>
<circle class="st0" cx="345.6" cy="165.6" r="5.8"/>
<circle class="st0" cx="59.4" cy="242.4" r="5.8"/>
<circle class="st0" cx="330.8" cy="129.9" r="5.8"/>
<circle class="st0" cx="74.2" cy="278.1" r="5.8"/>
<circle class="st0" cx="307.3" cy="99.2" r="5.8"/>
<circle class="st0" cx="97.7" cy="308.8" r="5.8"/>
<circle class="st0" cx="276.6" cy="75.7" r="5.8"/>
<circle class="st0" cx="128.4" cy="332.3" r="5.8"/>
<circle class="st0" cx="240.9" cy="60.9" r="5.8"/>
<circle class="st0" cx="164.1" cy="347.1" r="5.8"/>
</svg>
